<mxfile host="app.diagrams.net" modified="2024-07-06T17:58:59.954Z" agent="Mozilla/5.0 (Windows NT 10.0; Win64; x64) AppleWebKit/537.36 (KHTML, like Gecko) Chrome/126.0.0.0 Safari/537.36" etag="yojHkWugGXepsZ6rKENx" version="24.6.4" type="github">
  <diagram name="Page-1" id="QpGspp2ACI6T-8a9YhHe">
    <mxGraphModel dx="3314" dy="657" grid="0" gridSize="10" guides="1" tooltips="1" connect="1" arrows="1" fold="1" page="0" pageScale="1" pageWidth="850" pageHeight="1100" math="0" shadow="0">
      <root>
        <mxCell id="0" />
        <mxCell id="1" parent="0" />
        <mxCell id="ReHwsoFXrBNR-BmlqAqF-30" value="&lt;font style=&quot;font-size: 71px;&quot;&gt;&lt;b&gt;&lt;u&gt;FLOW DIAGRAM&lt;/u&gt;&lt;/b&gt;&lt;/font&gt;" style="text;html=1;align=center;verticalAlign=middle;whiteSpace=wrap;rounded=0;fontSize=16;" vertex="1" parent="1">
          <mxGeometry x="-415" y="920" width="725" height="244" as="geometry" />
        </mxCell>
        <mxCell id="ReHwsoFXrBNR-BmlqAqF-32" value="" style="shape=image;verticalLabelPosition=bottom;labelBackgroundColor=default;verticalAlign=top;aspect=fixed;imageAspect=0;image=data:image/png,iVBORw0KGgoAAAANSUhEUgAAAW4AAACKCAMAAAC93lCdAAAAyVBMVEXw8OjeTDYvJwfz8+veSDH39+/x8+spIAArIgAeEwBeWUUkGgAgFQDx9/AnHgDw7eUbDgCqqJvfUDridmSJhXbdRCxNRzGfnY8iGADdQCe/vLHu39YZCwBzb15xa10dEADv49qBfW4RAADqvbK4tKjfVD/dX0vn5tzha1nKyL3haVcAAADV1Mk5MRXt2M5HQSoyKQCUkYLmyL3jh3jdW0fe3dLkqp3kmIpTTTlEOyDdOx/ls6fpxLloY1I+NxjRz8XnoZTklIbigXGElxfxAAAKtUlEQVR4nO2d62KaSBSAURgEQZDUGwaDUlNKqyYkS6ttrW3f/6GWi8DMMFxMow0433b3R7Rr++X0nDlnZijDUCgUCoVCoVAoFAqFQqFQKBQKhUKhUCgUCoVCoVAoFEoCz1/6E9mAS3/om4Dn508btXfJjwSs50wdjwGX/NC3AT9/5nT95qt6uQhntZHZNwxz56rXFuH87c2w5aN/uJhv9s4S2gFC/8G+Lt/8Lce1QoaX8g0GRjtG2l6V7tT2xXyzXmq73TaWV+Sb39wktn3fny7hG2gipFuaXU+5RG1fyDcYSJBuYXc1uv0qidi+TD4BMwXS3X7EdIMj5/5lXBw4b6e+mXP7BgskujHdYLAIGTQtpfObrO1LxDdwJ5DuThfVzZpSgPxwHbrPn7/ZKbwymbiobtuKgn7UNN3/zDfzKKS6+yvEK+sYTdXt+26RfZ83f4OplS67B1jqHssN1M1HAZzn+8z1EmjWJAhwQbLwigj2nebp5m/19+EEMDe+z5tPgDfYCnLnYXHA13u23G6c7qC7KfH98by+WcCqts0A3GnScTZId9TdJL7J9fLMvvPYCU3Tzd9GAV3i+8z1kghw43FKY3SnveS3xPdQ14e48wv0lzhA67cbphvu3BPfz9+///qk/9t84qdzN+1/hBFgUy74y3hd+Nt7KIzjfNLj/R8/8KL5It++nHDClCsJYIRv81172g4ezK6XEHX1jdpOfEevzTP55ETfvmjVc5bjgOXUI5pVxxgaG/T1i60kQr2mj9mPMdo1HQ9mJ676+1Ro70c2n5xwIoIF3nj/aBmmKMuyaBrW436GsJ/6Zm0jeDnF2IJgSGigrhGEn/XUTZq4fpunr/c+ZuK78vqEBc7+s4hMstsdBcHSAMMe+qjLcCKIzmQbojsb260W9x90vqT3a4i/XjWfAHtvKQXKAsRA9/JadON5O9L9DtLNv8ezSVXfwHksEpbqjkdQjddNtI3p/p7VXck3cIpyL6IbF9tQ3fycZLvVuodc9n4TdPu+y/I3u5Ir2I50b/voW4+6+0FyR15Jc76Eb2e+ffh5Nm+H6E+pS/4p01uGvsvqJfvQQQxK8kTCvjIRzf7nIHev3J0Fh3Kke3wXMIJ8r+9Sanc2gpxJwmzyCVLJb8i+i/MJ0ODdMFnpDsbjQVdOpXZmC9dfiDs2EzY0h4GA6Wai1miallG/q4Q4s53XJt+27/IZWlu/yLe6S/UJE9eOWhpvlnwTJi7SZrLw5jC0NcwiuuvaSebn7WM6+biJtnaC//TyfOfnE2SrV3LiGTYLxmb8VeOAyIPPUTVPd7HtwGWwOlGfwjXK6b7hZYWpQX/wwT5eiSt7JB80Wjc/J27YpESLQVUv9p1bL8FDkksE5HQI1EFayH57k3WXxXai++Zb5DtvfZKXv+00c2OHRtKkLo/hFxqsu6hKYrq5OL6fSMvvPN+sl/aJfXRUCrrxcrCzvw7d5bGd6vaNJr6HLU7HByjk/M2ukorYNhxUd3L4UthdRTKpYhvS3TrGN7+5VeebZx3fb/hEmMciuqeo7n0c3cJahb/eUN2lVRLX3YrzNx/s8Wwy55EJ50/8Dj6RJGpI7maTNlFYw19vqm61QmyjuuP4DvGbHuytw3fZ8IZKpbKAdbOrxCq6ZGmo7t7vzPy6VHdL/wHt72QG4PqvzP1LADeVHmQpXXdjx4obqlutIhvXPXyGhM6/4e+9z3wK3OYoXbhVT5M6ukJspm5+g8uqFN3v4ZHsf3g20m/xdII28dtVMB/x/4VmJn6b4zQ/mfAb4vq5TPcTrPtTRvcmWywfoAmfYI0G2lJzu/BemvCA/IRm6k4MvmZ036iZj2GXVhtCkERRnCDzbkO7hpkJeXemRPfwN3z0BE9HSGaPATNsAxJDwa4GN1Q3w3w4eSHox+88Ce/eV2xlwt3PCZ/Cqw+Fe42Khyagpurm1UwyKNc9/BMHcA9P/lwrUyijz7EfRJLoSKi5wtQ1Vbfv+0P50hvT3dKf+R7vN5a9J+wUENea5wxhWXbQIan26Y88fPOrsbor+cZ1t4b33zfz+dMfPLbvybEdfg5YkE71CLLiMhlxVXTX9F4lPy/1ndHd4nSdG+IDqiLbDBgcDUpSMidR5P7OzYQ2U0l3e22fw8b54e2y/J3VTXzXTZHtxbGnkd3FqK1Ik4kk7O7Gh+ztm/DdFXSbh3qGt59PSgZVlXTnVckQEHeQSjfYhVdtz7PZ+Ow24e05uh24PU0vXLL1OvhQtj6poju/SjKB7TgspWhExRdfOMjRzUOT83ZbXAaHJYLv2cGtV6DzdmH+Pu7EF31LuJsi24PYtjwGVW525Om2kdW72R1rS218tzY/1yyx+L7zZervwjEI/yu/BeVuspOSBLBMcsB6elh5tqoyRRdGeBbWLXTT7xD4iZwS7ExMU5woQuYxBW+egnqp/+5FKnN2hAPbrQLbjAo9UcA0DHHyuBt197OFqy2dlcpiGZxlbGe5hWda46l3XCvmHYQVavd8sNx6yX1MhiC9L2TfHFdQJbMH5H09gtBRglOYhmU97gdTOzUO9oplmEgQy4ZlPoY5H330BoTl1c83Ob6RE7DEtxTbxh4tlY3MjtQ39tM4YYARsfs8+mTJr+J7oHUgp9+5hy+L4BOp0HZR3mZKdYcoRncVCQNb4klw46jbIYe30q2dbnK9LL0sUmabAeP86RQkTHJCY8W6g0dvZF8XJv3Z+bScDVK9LNNdXCUDWM8k+CM4Cx8/mqc7HhqCqYDer/Rdr91V/YKbIdbLkptnJXk7BLhWFd/R8xnBgygR+JzUQqCOd1ZfloJLIhO/1m5dh83rTt86hHoJ7z3y+M5kYeeekD6noZAwYQB3QGLhQf874E3Hg9nMX0ouHTV3ElAHsv0l9yddCOK5pDRvHwFa8eZZRHT2G7+4TboOcrxWDyq1qG8af32CX9P+cvTdu8Vju6rtQ5IwlI6QewdNWtQyA/8d2Xr57bcaPfEhs3dTzTa76hwVK4PFfrt7VGSx3zdNP/+iPXkNV3N/TzZ/D7nnL1++fsAzSYUqGbE79iaWdnyug+0dnKnm5981fLu1fq34q0CYD3LDzNN6KttOCiU8uY6fauKshWvXXTaPPSmT+GrjZYnpZHWCaboov85kwpDq5V/YdqyjTsUmnbVPu3Kldpd/XwveLt5P47iqtqGtAokwtgPLNLrF8bXqLtlPq14lGeiJGYRNAJaBTmvWb4r6evDzfN+n2IY3wgxXTTuTsFg6o/TwydWm7pB839XzdgC8JSCvF9rBs0O81dTdwtMmi1BJr4i8/bTTbPtYqVJBMi1RWPu0J0Z/Anc58jX2lDDk+D6hSkaARWZgQmjkpdGZfhf1gbR/yQ1PyNsR6jrvNGZKv3t1f7lZlmx8n1Qlj7DeelIsu2MNaj/bew1w3yfn7RDWnhU91E4xus6V5+0Y1PfLbIePbLxTTIkwehWkfufOoaEdA1+aP7lKprDAXi5+ioYpTiQpejyaJJuG+HOxtOu8HfPqpL654YttM9EOjH2Yau5gMbvz/1kMxsuD7bc9/+Qh928Xf/0dzgeHL4/thGTXqxlbX2eBV5+Huq6/O31NQnkR/Pzpx22P2r4Y/OX/5nIKhUKhUCgUCoVCoVAoFAqFQqFQKBQKhUKhUCgUCoVCwfgfvQn+0rhc76UAAAAASUVORK5CYII=;" vertex="1" parent="1">
          <mxGeometry x="-396.34" y="1444" width="712" height="268.46" as="geometry" />
        </mxCell>
        <mxCell id="ReHwsoFXrBNR-BmlqAqF-33" value="" style="shape=image;verticalLabelPosition=bottom;labelBackgroundColor=default;verticalAlign=top;aspect=fixed;imageAspect=0;image=data:image/png,iVBORw0KGgoAAAANSUhEUgAAARQAAAC3CAMAAADkUVG/AAABTVBMVEX///8AAAD/cj7O7vji9v3/ajy00vT/bz3/X0Gvz/Pj9v7/cTz/bj0GBgauzvPm+f7p8vzX19f/bDL39/fL8///bTQxMTH/o3b/WTf/VTH/XDy31PTS8Pn/aSz/bTP/8e7+r5ju7u66urp1dXXA3Pbi4uKYmJhRUVHQ6fny+/7/ZkD/0sXIyMi/2vX/eEX50snT4/f/ZiT/fk7/lHD/4Nenp6c4NzeBgYFpaWleXl4fHx+ZmZnd6vrW3+P7hmH/ZTT5j3r6xbj6k3P/hFj/wK3+pYv/t6H/n4Dt7e0bGxuysbHmvbffxcT4imvvrp7ot6z+il3/qHvwnovqv7P9dlv/bk3rq6Ohk49WSkcXAADNwL37jHY+HxD9c1ckFA1yXlnuoZGph36wdmaLLwy9VDHVWTFNQ0FqMSVgNSklCABYMyfbakGARTSMRDD/Xw7BmiC5AAAQ/UlEQVR4nO2c+3faOBbHDQkOxoSHDSkYjEl4BBKeCXk2NKEh7/Qx2aSdTrez2Z1td2Znd///H1eSLVnyg3TmJIBNvjOnBUvusT7ce3V1LZvjnvWsZ3lY9cRBp9PMATXLnYNEfdLXM2nJiU6T5wUhJvA58B8PPsSEXK6TkCd9ZZNS/aDMAxrNWi0ficwjRSK1WjkHKAnlg1m0mERTiPHlWiQOpAPRucCv+RpoFJqJSV/jmHXAC4DIfJywYBSfj0cgF/5g0tc5RgEkOURklOIR4F0zgyWRi+VqcRqJk7Ugg6kBLLPgRPVmjK89YCQ0FiHW9P1UdAAmlocch7aheKTpex8qx3J5RyQRVy+K13i+POnrfkLJOWAmRHWu7ugxFBuUv8Tnm0LOt1lLQhCoaBIBR+pw1Pn8HKV83m4z8bKQ82m8TQh8hHId+NvXGR4sGNaFBMGXVA5iOdYAwDFnJogLG28gFR+G20Qsx1jJfH4u784EYWEY5oWY72wlIRAmERhNRhiJM5Z43nceJAu8OTx4oP4wE4sTQSr+SuNyZoxFk+v8dzEBoowlXovxkx7HY6os1KjwajOTVCo1l+/3+3n4wd1YQLRtTnokj6dOjOQn8Ou8hUj/6uRYTEvqYWjj5Kpv5UJTaQqdSY/lsVSPNWkmTIhNzV29kqS0GAwGxWgodHh4+OZ6LuVGZZ4X/JLa5kiQhd9YJlctFQLRBagALurGtY0KLsvVhNykR/M4OiDOA39lmkmq/4pCgqmEQt03fQZLnkRbkPD7I4cTmm5MriQGCaQCsERD0cND1lgoDxJ8MQN1Ytj2OTbGpt6qQZtChrrvGCr0DOSDOoIslI1qPefERASioSxAIlE7FdOBcjHvp3CdmJm00flJ6h1isrH54r2jqYS6V862UvP+tEwMBToPzSSJfGfjhxcvftikbSWqWwr4v9t3DCtx3vPZ/kEsT2ZjJmlrodRk8wVUyz4Bwbm55ehAce+bCp+Lk5mHNpT7QtAZiuk/oUMmrJgzkNdzlQTOUTh2Nu5LCID4/gcIxTGoQAdiEj09XKNcxds1hI7gHGVv0kGDitVQKP8JHb51NBWvz8q5JvEeJqJIGIHYalkSOApKKEqfY05AvKcTOOA9JEehDeXKIW1jMhU8LV87TUAe9x/Ke+I0lNfW9N4FyuENm6tE/JCqNHOOYTaVdmdCQ4mGjh39J+LZYlO9U07k9MwtYim29bvfBwX4T83Rf3J8x5tbenICL6AqZCRi8Z655IiQElygIm20m2RMBS8tyzzPx7xYbhLAhQt5HFIY7/mLNAoKbSnqtdMCCN5z5z0ZbHmoCA4p9NBS7wpG5WTBHcraGrQU1bmuUhO8DCXuDOVwLWxozcZlIbpmtroUm/JehqKnbnFLOpu8VcJKJgukwIFboUAasDkDWpWjPJPU4q2lXnYfJyipq6yiZG/vB+324GgtCwgwxhIFB7Jrn++Hw5vbbCacuUvSVMyc1rtQyhiKOfmkPmTD2Tc9o5M8CAN7iDJMMncDo2CiFTOKotBUMJSc56HQC5/UNWAyoLrJbzLhMM0ke0S1ancAS98GJe4vKH0lnG2zHQEVElcAk3umUb5VlFufQ0kdZbJDa887JRzSmYTCmSNLo7wWzprVWl9C6WeVW6O9stIwPvWy2IHAdIPrrz+taPqHdla58zWU1IcMdp6PgUDgR6PrG0WfgYChvNWPnH8CzT/pn2+VbNICxdOBtmmZfVK3yp3emgwEFhcDH/Uvg6zuP2vhjGEeP8LWgGy0Zj6kGCgRT0PJWaDkw8pnvfUjGPVi4K/6Fy2rh9qw8sU48Ak1N4xW5Q2G4ofkjZRTjOStn8H+cYlGvWr0XcNQjowDP6PmpP4lbAYVUlDxMBRjDwaH1z59MvfIMGjgqMHd6ZE2nLkxDsCIQ0LOnXKYYtN8T699BLJKzlsshav87edvK7ivzVK4j0v7JTwRrRFLyfuhdGBsOyf1lLw9D4EyY8qtY6tym8LeEyFFJk9CEZg5WY+0qVd49mG0TmafsMNt4nY2c4+hREia4k0oTUHgjds+pEYL85SevetnkqcwyyJDR0r2mlgKnnwEwZs7MjqdOr7FwZGgksVzMiUqo8VzMiXgPWtzTEiBtzgOOl40FKSEsX+W5LRw7WMzhlsFFw/AOuetvTX7gTWUeNnb2/R5co+DTMpKxuJAN+wq2bKGvgFLH5zk42J+jvek62BRtwgNU7nOKhlm3EdZSz2FsaSbbDibtGQpXt94jW8mmxXJ1Luskj3RcIf2XYapvIVglcls/ZKhCgd47inHPL5tVCDzD1kpXwFbyXwe9rReu/gF1q6ZGi2gordq7VPQqiiknk+2YvAe37Rj7AOM0FveUn0wBSuwmI8K9tZqfhRkK6RV+dy31VK8fXsdSo6VbTtUUknVvLMTtCtktkbNonWehFnPbwTkykaopXdHwhvsrncIdXNBd5KD4jFhQhmKt8MsVIIylToF5bskviKWYu448HaSoqtsLJWpTaP5UbsOGCivbVHWD4YCn/YxtxfjaXnUrgNa6RNLdQneG/R8RIHqGLnKfBw/m52ybv5zhXLDJvjz8Y7npx5DPH76NjKvU0lt0FBGAEobNQPiPBF/PNnCUbEWU0m9okG8YnbAMQ91FPSNtOZma19EWV3Ug5Uo1DK7I1XtNRV3peN1KuBIaCO6+axC2ePbihnlePy4QQRSSZ1QxpG+5k71JyuDYlo94a4KFBS47jGZ+OYJQqS6QL3oID+Xuqeh/J3jtLO0KkmqeNbjuH/QVgQWPqbv5AXfPGuKlDCfwp2P5FNvKWsI/lIBHbT2cNiGk23lF6pJTaYIknjEm2XZETogwRa60Dsayj+36Y7bXxkopoHN5/wyG5vqAFshzzGxe0YDP5ICivYtQD/ToZ5TTGK+YwKplOcdobT+FQh8RFi0j58Cv9K4uhhK3J9MkK3gIV4zi5+v8B7pb7/++zf49+90i5SI4HjiTyYwrvDG+8wqDBRgKnDjBdqc8SvzRFQhjudi3qdM4Bxk3EetWJbJF3CTAdxnsBilD4st+IKz+HzZdy/ZoZVoxtD7AM8tUH6/QGYS+MQ4T1A8BrE5nvfza96QOujNkXFbQeU/AMnP/2WfJgyKb+Lw7ZF+yu2dlciBeBsvWKEEW1+/2o6Jr+O1nDAT7xntgJ/+++op6RsQTXwbYVnVy7GWa8magXIfa/o7mtCqbyw8TGVhIX0/O0hA6noYXVh4gAtoj0YnfaHjVPEQDnkUFchsQXTaw+NXadmQPmoXLnobyOPWnDaD+VS3CtziBpAgJ1pwIAKYwM9rmbNJX+t41Bt8yRhPbRhQ0F+ExkIwCmmhDmvhzO1Ae/jf9LK03unRHXpy0Liv3sJYiNXAv6ILopHaKmgDwt3R6brmi1tgDtKGp0e3d2G4yUIv57fQrQ4YPnQkBhd4Dxm1p4/0py9vP98P/W0vmtZbl9to8dMitzqQ+wRJdBH11zR1Oa3d0/yNg1IPvbqrdebyJggR3QMRpUlf5nilQ9koorHboaRPUUNr0pc5XmmwSCu+h1DEDfp2u3gMvxQGOq1JX+Z4pcFbguIraBDie/p2ux5NpIH+edKXOV4hKOkzBGXzmIaCwozUbiFok77MMQtuLkifDAsQDb0HIV2Ef6q9DdQ+6ascs2B4TZ8OJTh0BsopxKFqx7MIBQ5aGiIoRfrdkYWhDgUeSxcnfZVjFoIygFAKpyyUTQTldRq2TPoqxywYT9U2hCINaCiSAQVO1tIMVVOQEJTeAEJpM1AGMJnVoaizBgUNWoNQ1B7jPgO9BdqQuj7pqxyzTqWgWNChaKylwNylK+u4Jn2VYxawBDEor6sQCr0slNahjXT1llmDMoBQOLgTssvBmQYkJWgJJK3DY6rcQ7gmfZVjFrAEsAiGfxY4PbNH0w6IIxCHNLtQ3qM/RR2K2kPlAgRFLMhwGa1O+iLHLLi2SZ9xbQBgg0MVJT2MACiaCqMNB5wp/XqGTEUbHqtiUOz2YK0J2AuEAnwJ1VgIlCJAlJY2/V7LR9LWT1rdrpSWpO6Qg5aS3kRQgNmglbPalrvQfTjuNeyldrvHpz6fhHrDk7OTItQpKs+DeQfQgFAkgAiulsE0nBb1BL93inoWT06KM2EvunqbcEZe17PbNofggL9PYIwt+tw8nKStF99LalpMd4s45edQ1gITtmPQUOiKm6ftGTKQ4VlaLQDHSYsb8AkFDsxEqEbdk4zC0mCzBXiJaam7cTJDnkNJ24QhpQg/wpxW/zTb6p1IcEIWkT20u4BKQfT5LdLR0tbPWiB8iGl1w8AwUCVRFKXCcXF9FsH0hpvB//2v2+2qUmvTLCZpxWNRAkdBU+ts5sKJZsq9ZdagPOtZz3rWs571JJIbW9WdUnUr6dqjclkt7e1UqCPJrZ291b3Sy6TrZkjYY3u19LLh1mGa1dgLYC2WKg4d5K0lox1TW67uk3MCJSeWy9ULs8fO+RNe/lMouR1gtGsbwJbZaDysXWVPCZRs1vJwj2nWTsCmFaaDvEq3LYMjy9v2c1gXqdh77Lu75tRpzz6+QGCL6nB+QbdcgB+84nQKQzL5YI+pliOTQOCSdFhmG6qAkvMp1JidqVmtaWrl4Du6SLhdYg4DJty+yynmOa49licyyD+oBrnc7a3keSVZXcTf940eZrzcXamcw2Bpciw1KsvnSbMHfmNGiRzZaZwvnzfMM75NaJx/SCRcEMN+iY/oYYW4yiqekohr7JGfnQxadzoSUHZlWw8PhJVL41KXqOkSG88F+oZ/9B3Sjo9UqX9nhTEvHKZeOvRYesLRPJLwvMmkEPj6ofHI2FFI67LtCNQldQ7uscP0wKnO1M/LFWoolHbNQWFAJjX7EaQ9E9UWbTWmvjmhmkIZv++q5bARE2DYLNlcZcfuGtQ50DsMppeWHg2P+I8xQFvwWyLGYPy81HJo23ZElxGyl8nZ1tlXNia2Rx/FI8uwedtSZ5cMfN82EPsR6zluFrHqDGvatOQywCqOibJtgPKFY8AgjpbEUKw+SWObarn96iOgGOcs2s7ZsUDZtvXY8wYUt8vcHQHFzbpWLVAubJUCM1JNtR4ItI5QDJDWpR1OaJIkFFsTEpwbP/ooHlmjp2RnKMYyYM9yDpWbGahLlh5V5xOnTi7J2+ooKEnHc7ChQCgN8yMlbCjW9GX6hNN8JqpUzQE6QMHnXDAT+WqAImF83JcdTpv6kGLm7PSvSpbJLlCwo+ybJKl6ZZL6F5aoHpiJ1ammUaSSimv4Saoe6wzFrDpV9TxMvlykz+GIqZg9zML3tKduUFQtdbv0slpiymwuUMzCVGB152V1b5E9h6MMEPSogh7m1y3Hq5g2vQy4ywWK7eaFDYprkXN3AiP8M3It0rpDocqNLlBw+meRPfWfVrlTcYUy8hxdTtxWp3/mIWrYrt5YE1VwQcD+C6/YziFZsKFLW4+q7V+ZarFBYr+hGwhc0ukm4RAeZdZYdpfNBaFLj2lfCNq1UjKsY6kEU9Uk+LaNZk84czjnFvIWnr1XX57TpQOiZbNH1XtIkORKMlkhXp/Eo0iujBhPpdFoGM0OUEgPD8WSPy254rCvwiPVkqcSTE/tCYfOZHEWjMJB+mRljTPGZOOJ26JPIEc/kfc9Oe0+mowZhS1d4wx2VkMKTmq2qfCB81fv5PGPLJmsinFO1yBr66m/UfxkolL80tbl1o65+2vq7xM/odwWyfZbPbOkVUcm+zOao2A5lUv2vVBpfFLZi29eqEg/tSrsVtPt2Z13GCV38Ex8UfLI/tix6LyxsnXZmNUs9lne0v8BCq3uDcBZdOAAAAAASUVORK5CYII=;" vertex="1" parent="1">
          <mxGeometry x="797" y="1435" width="482.62" height="320" as="geometry" />
        </mxCell>
        <mxCell id="ReHwsoFXrBNR-BmlqAqF-34" value="" style="shape=image;verticalLabelPosition=bottom;labelBackgroundColor=default;verticalAlign=top;aspect=fixed;imageAspect=0;image=data:image/png,iVBORw0KGgoAAAANSUhEUgAAAS0AAACnCAMAAABzYfrWAAAAkFBMVEX////m5ubl5eXk5OQAAQEAAADj4+P09PTx8fHv7+/4+Pj7+/vq6ur8/Pzs7OwrKytqampUVFSBgYGfn5/ExMTQ0NBRUVHb29uUlJSHh4dwcHAnJyeNjY3U1NRHR0e/wMBlZWWxsbGoqKg7OzulpaV1dXV9fX0ODw+ZmZkbGxsxMTE8PDwTExNJSUkgICBbW1uRliEeAAAWsElEQVR4nO1da2ObvA42UGJjwL2mafu2S9N2t67d/v+/O9iyjW+AuSRNd8a+aCmKxBNZlmXJIMSvLEmSihM0TZK04BTmFOZUwSnKqaq5LdMMCSfKhkqZZiWcIpqBcYaaU/z+lBO1LYv4srLSlyUYyoByxFZOyEqVckJWt3JaVuLLCgOBjgst9g+tvxCtFG7KwmjJJ0ij0cpahXy0DFmj0Aoo18pqlbPQ6vkpw2j1ASHuqRP9G3AKbuIU3MQp/fMl+uHhCWxWUEgzcNtKtEJJQBYJyNJoCYZWVkg5R1ZtyYpVTsuqe2UVCcqaC370VUPBVzfUCr6aU/DVzR9XYOecEo/BGSrFkMFXcwasGQAoiyEJyMK2rEozcOUyX1a3comvXBlQrsh8WasYINoffdhs7TEV4e16xxSzGULeLrW8XcSYivR2va64D4ijR2uUvz4AWql7U5b0+et0wCVmfXND6s4Nme+vW1lpmqTt3NCvXNmhnDE3ZCZa7tyQxQBRNRery7KknCo4hTlFGqIknMINURecopxinOK3lTarYMCKAVhbhtJnaGU5DK2sSslqGVpZncoFZA0rV8cAIWCNcIlgJUP+OoMfIrPcL/xyYX8NDJFzQ6llTfLXQeXGzQ1IWeG/6DQCiH9oTUArTZW/bijpEtNU+euGkv66oQTDqqGkQg3FFKs0dn6bVKihpL9WrLYsYstiAVmaodSyWoZWls2Q+spJtDJfuWYqSVcBWR4QiPKLFQUrOIE5RTSFOUU0VXDKZqA2A7EZiGYoCoO1iJG1AEO0cv5zhWXxH13564aSLlFbSYOrcokNpa1kpQxM+euGcn8IziDnBsVQcfGCaqTLGYZTgqg1RTUllOxiaKmyZaUea92lHLWVW2mL7AHigNHp+vbx+fX1lF+v/NLUqU29DlKxDNePd7sVrj5hLH+Zf9D1uqPJUmilvf66wyW2rl77a8/YLX9N1m95fvIxV56/u5NJkZlzQ+vgB4Eg/ML8sqnAR7GU/xHdfRhWgBej855LEsi2krLfX5sOPnXnhpBFyrlBgvUhAxEENwvOLuXMCGIACBTpgWZFpw9C50bzXxe39xfNdXt73/xzKE4I6r6hxG0X/CNJqc9CDAZryyCou/8kXKf408TypwDWhbivIKQAk+aUuK3klPiIaoqbfqFuI8RmqDlV2gy4CDKsn+GnuikWQ6vfX2emvx4/EptxKMB6worViNLcWF6P+sQMhNSqWsnqj5wyM3Kq6B2HK88TL5bvHYlBIPq9/DS/6HyEngVaOzRiWpgxo/jy/wj5l3TG00hqTASxGhVBaItcid/2j2mR4pdrZWFbVmvCqWklhqxQeFN2WUmaCAVeoyOIVTcQ+49Ot+KnXZsMB800Z+SbGIqfI5a/BF0/DK202goNNnTJWL7DX89eVd9zXf9TDI6/tkdiyF9nAVlx/lplQZMrYd0bais3dlXNZel8CqQnbAoSFTalGYoAA/EZ6FeO1mlpskbIKgZlDSsnZZVr8AXRDJ2ykP4NF8wGWu4Xvwu08IRsYGBWn5QNBLSusK/c2Gwg3LTH6BRfA1ofmGm20DruWF7Z1t+DluEStb9uqJXjry2XGJlxzYp7QEvvkIVj+dWoWH7V668bqZa/dkeiO3HZsnqAQIxffIORcqIQu5Scgk1HTon9yoJTfL+yDDBQzYA1A1EM6ALmRL4jarF2MYyXZTPI3deWtYA58YGOleUBMWlnP9Vm6+3sZ/7O/o2OID5oZ7/SEYSlnLuzn0YAsf/o1EJrRnRasZe77aToVKH1GWL5mWhp2ype8zy/RB+K1v6r3Vq0+qvdAhUNZvVEtYMVVFvREFvtpmP5+dVuNb8SXl/CScopwincUAluCMQrWBLKKV6QkvD7Eb+t4reVnCoUg2BFxGIgAq1TajLYshCvZXFlVUpWLWWhM/HMpZaFfVlJ6StnzomKoZVValnIB6KwgSAC/f1W6RY3MpZvx29Ula7rr6nIu1xTmyGqSrcn3tLOJb5Kd6/RqUJrbnQKiZ8nh+Fvi+XHo4WCaD2KR65knTFjycfF8maR18ot8lpFV7u5cwNnYDcqlg/MDSu32q2h8O5i61e71d/515wXIKu6uX0otXIBf91W1rloxVdC+0Dsb69aZ5qNOTEq03zWBApnhc6lgUUmW5nc5wxJ+r25Z1eY+a3uTLMRnc7eq54Ub0WZbTCWd+Mt6nmgx8ab5yIxbcZbxVfxxFQwMLH0bOCKyzT/xdHpI+yWXjloMTEjvoMsAj6MW9dniOWjptsptqXAyisbLTUjAkPz+Aqu6bYVqAAfgRbPHnkbBYk5u6VOBWlq2lbidhomvm2liZGpSlzbaj4qFVhJZXfsoDsx9piURZ8kXE9IK6fRSpEjK4BWYtpWy5Do59JAJI7ZoKGpIL4CfO6cqMBizjyVMjEjvmNVAU40XMVB50RthUcQbxlg2bIqGIiXTCvXwkX+L6NT7eBPmCdL7J+e5CtDOQOu7PBojV4nBvN6/joxjV0narDAUVmyijf+Hb9I2ipnWFcxdp04unVJo8VX3rIphi+9RWcLp6AphlPQFMMpaIrhlM1QaAbiMxg5iD5ZVM+GrJVVgywGbvqSWLLK1tX7ypmyNFpaOUEVWk2XoROIrvxWd1PMnvJbCqwilN+CgbhxlNPW9VLsL79lA3Ek0akCi4v1c6diRnymrnKmqz/i6HRxtEyw/Lw8jKQb4inXWhc5DFodq2p1U9+qOrIewEDLXFUbsmrts0pbllxV38IOV6BjxxiMZYdywVV1Rz3AIBBiGw16XPjmGXS2KAq20aAVxrytpQqbAWsGom5TaJkMtiysLasIySrRGwzEkKx6pxZBdYdylBFrP9FSLva5JBAC1uAWbagCfNJetYrlO2uL5KrvOw7vVacwEH+E96qJgsvKvSy5V33QCnA2GJ0+tWmH0Dk2Ij/ThKbhOogMykob06n+olieVkzcxr8ktdFaS+t4CGcT8O9clI2Gu+/prQo9DhbLr+L8dagCfDDjCrb133p3e8evy90Gs8JmuNVwheq35IwYrt9CF4q3WKJ+y64VC3dzYlGP71OyJI5YFDjHMAMJMNCb3Gla+f5ti2qTtX1k6suqIVG6CcnCGuirupXqKWfWBmLS81xDQAzXnbqlnaPrTi/yE/tqAHv7QZiZl79oB6NbdwoD8ZQoWYZyGdZgFT0dO9PrTg9eAb55d8GSgF2WJoOCi+fjrei0AsO4LwI1zQZYf0Esn6H6QrfamT1d4r/PK5PBgMtCC9xevq58tFqw2KHy8rEjMTVHYuQOGdu8SnQ4TL9+/Xn88uu7RqyJKM0dslsNlxU50VMxSRC/F6MdvriN0qbvkEW1LuH9XeWDxuX0Zp3UAmy6ebnWXYP3hvgWrtL8kg0MxNr9ctJxf+BSXp7OfiIUZyWTesjWCpTrNSoqVVGYMLy5UH/5VmpZ1LAuw0p+wJOClaRtDxnWQ5eF9lHb7qDuCCLck9DbQ2YP8iWj042E5CcP0rW3ExEjZufyWX+Ysky4lKz/+ED8KRQxo1MDrL8hL18W8nHOwiezqOXd1pSl4vK1lrUSd30jDlomWEdRAT60qh4YieUrPM4NLNytuUHIUusdZspq4ZKjAwbiVascLJ++6XA2EDllbuQ0aiT2rqq7OlsCHTtOe0yIQTfFwGPyzIHTT6NvoxKuc2R8r4ZL5lOQCE1PapsVK8Nc097eHcmA1zJjM9gdNATEnBqbrGduIPA89yg4N4hVmHyIfFeZsiRcW8GQCN+X3zrKFY+2g+/v5vzwGpvh6BSe510oFIgYQZZI1eS/sSXrVtTYiB0LVF3KGdHuT1QRK/M80OeM5Qvo/Cb9aKEv4jF21JJ1y5dFUL9Ff4mvcbs5E8KLwVsHfzi00ugsqIrl/USjvarmm1D3KsuCghlX5a9TAeopsmWt79cEGGAgXniyCNpeYhpQLpgFbXfIBlbVmbuq9oBoM9Gloroy7KVOYsumGM1QOklsqD/Oa9LBUEgGegf+t7BloRIYyAtMZsRXTmdRlJqdyhVlbXVzaoZe5cJAILDC+Gygs0Hi7N7IOiaRaW/mQ2/3xpGVPMBcwNJgN6cciCQZ381p+Ws73oqauA7YzSm9cDV8biDmZ0Xkv7CSZXsgGIhfyZH1Jy6MFv0i3dEgWhLXVRAt2atyVR0ZWkuddyqr3bCMkobPp5YO+CoJnXeabEUwQWafdzqx2i1w3qmuL+mvlik6K1j8ghQKI2jHKq9axqvMqcWD8CqZQCkPOueF3qhDVqhaJiiLqTlxsGyofa4iIIvWE7o5TbMNFjtRyEmtq46OHXP8QkHIjw5ZZPdjTSKVi+jmtBO7fpXuh3RzCrSaFW8VcQY4Ej3qX21ZrQeqWDX/xPTjjuUlWquYE9Obwdbce9aFluuvPxqtpbo5jQJgZVtJxLsLDNva27sLAtVuHd1BEUD0WElEBJH6P7pILsBGPbfDQJV9u+LDIjd6UUSd4d8bQbSyWotMeyOIRMmaHG/1V+nGxVtYZK50WUPnO1fE+ljc+lLNeedKOrZKNybeClfpzrWt0CCH88luIqLTCpY+uzi0jiQ6Hd5HHWNbhIqw4E+EbTFIcW3CK59jta3Jq+pgopGIQ6RyOnxiOvkjtnRYstcT08GPrntrbOJW1XuYE7Hs+Nolg3MirJHObFmLzYlyvUTOIKeI58+Je4i3sAThGQ/GW5BJ3jqyLA80OzpN1DGPR3tu4GOu9gr70crlkO1Ba3Z0St/B0veF1sx1IpabhTKF3LNOhNLub3WXLMu2Qsp5/tqXVcOpG9+9ictfJw4DUVkHc4jTNbylt3WSR9fBHFZTjDwR9h6ZJ5TU+hAQeZLHSu+/cgT1ecFUU8SiqKYEMnWAAVsMDTLl9rfch0NO61L/8SksCIT45qXzWyJvBWORGf7aXZIkb+JB3v6c7+16P5HFGH/wEu96Q9oKl62DwHKDdMM6o1P0ruqV9n1g+kn+m/SO34Wj09FoJUxVKrAutK7zkwNd+RchfjG0lt3zEbddyYqGnWDw9nzY84HAauzrAtQc07rUEZ2OOAEQ9t1iD9lDLxKuuxK5DCTibQYdfx7gClxnD2jUUYg9Jxvuaa+au0Ss6mXyF1xpBiFLHpF/kv93dxa+7n6KJdGd8/dHMXl86eLyr4stIZVxuuTMver9RKfC2+EbbQo3ogqkmZpZgdjTqbKR36WoiJJvISjgSB/EC4FqyBLyD8Vn/P1PWJbu5FdCkbJQf2xZiaY4A9TIdSShjiiWB4WwetUKHxB399urq+3NhS5qzvPHGhgCsrDYkvxaONFpJdDadmYT9v1uzqXqt4JzA0p+5trX2pO6PCik6zR+iRZzsgkWWrZy3fVbHcoN1QOEgBhxmvfIA7M5VcO6OTRVfcEowKCo8oseiaYseA3BloZkjVZuxHOp2kD1Qyxcdwo+lG7vOl97lJ8/VUSefqNltd2cAq07pZzMvch0wrbM+vy1V3fq+uvpdad6zC7fn0gvf+adYInB+fWhtGW1HqhFy/RACq1xmeahzMWHx/IporcGVIHVCHx6vvl8aM3oxQi7xIpHD6aD//16fvuDX4/Pp5arzx+ZMxJdtAx/7Y/E0JtarJEYO3HF9WJA08xSL9qR/TDl1YkROzzfbzclT8uJNx03aj5cnmvAeDAm+intb5NolbYEnEkvP/vNPFNYp3Zz9veQleVdC8X1boWLKrEtEuGK+3910+vGsxInglCyOiIIPTdEW4lvkVGtS8tHp/pdiQ0c94mbnlRjqiJkd6rxunQzzW10anmgj45OF0dLHv8BQ6zrCeRq5OpU3XtW48+A1qSR2LOqpl8VAF8TSG2FejG0rCdlXq/N4leNjqwZMHokWt1BPSNx3JsQw33Vcd2cy3l5frarePqfG0QjGEqsGN5S6nv52mFYzfHyc2cvmfFfLoLQ5/fcIhgi/l61LYvwwzmB5zszV3yLRBAjlr4f0M2pT+DcEmdnMJBp1l6hepZc5HNEpwuhRRRYmWruikJL7WfkP40KlSNGa5kzkrDsSXzLquC73rrOSEKYgPPKX8uDrKqnn5HUcSaWe/5W14lVxjlVUCvSWIholOll8LpoEMykoqQS8d56VWGJZaM897JUVZnI3Cn/DLa5R8mynmuYwTp/qz8bGLdBAts9soHzO/xyI3aKxC8HrxvNH+8gFX/3G/Lyj2eP4rAgSNbf/YG8/Jn+iFP3oWzgwO5NdDYw3Ussn9BreN5mRQ0KJTE1za1XgNqOSXs+v+hni+UZdMflWxZTbxtAi/akwvovcW7LYdDKwhUNY887Bf/LD46cUD0Bs9vDVLgatJKxFQ0TzzuFV5yJphi+6QhVJWWpClIaCupLeLIFmmI4ZTMUdYmgL/MdWQyFpqCLpleWbPOfUBdxjjzlKlM5UxZ0B9nKsWHlgBUpK5x5TjO09uQrZbaB96/1n9PM3e8vqLk5vx51vd+jDuVGvIguWGG2t+gUXPy9rltzq/x6o1MlC3rPvgsJYmEmKFg3SgpKtwQliLKh2GeL5aFu7Y25Co1DSw7nH76pdM4NxruiDhfLz612g8d8qpyCMrs6efjdBdC9/iaeIFSdHOjmjHmfz7hK6L5qt0TPtIn+ITgl+8l5IKWsJNE/BABlMKinxPwz+GrNWikG410V/CPQRTNwWQWcjLBtWOpOWZZyrazSlqWfi3bIMp6rthj6gJgUb7mFsC+yajiig8MZU9QaU0kivugap1OrdH3luqpG5r1zZUZ0isRpdXnpebsx0SnsQorejHy1ZL38scXykP/96is0Gq0aWglfqiNFa4nOlZ14RH4iW+jdBb3dnEYsD7IE8Nd4yW7OWbF8oJvT+urR77iD1iZ+EkHofT5j5kTEGLzmiHbNiasDzon7eZ8PzPtnODBERsZbiFVgp5tF+xOPKTqtoE1lVy2BlpwVX44crenvfZUHqKwttELdQW43ZxZAK8Vifn200eqOBYxYXitnoTUx7ujp5nRiPyeUc+JML5STbzNEXihnxrQ6bAzFmaYsaCZ83nuc2a1cp6wiWWJOFI75VXw0f04UZfZ5LmOUY5sTF4i3RAr9QqgxN96i6k2JcG7gaA/0CaJT0XN+C0XvFWPwmhnMKXEb31YBquI7J4qC9H3JKapZkToPtn2T6bGhNTN1Bicq/rn0rx8O5f4/yCAX1oBWmqS968SoU380WtnAOnEYiLazhf+20LHDKWiKETYgmmKEDYi0LDcVSMs2BCtrmZFf7DqBEELkjJWsVjmqlcO+cqJjpypb5ToYSMtQSQYhi9myPCAErLPyW9C4ufCVP7HI/NbU/YgP6uas1vtAa1ccdXQ6PZbH74vDlef4mGP5sd2cZv1WUjwu57Tget445VjtHv2Us0ZCe/Th+q2hbk6ok9DNPkz3uDQU060wTHfRMJtBUCqVsdxVdsrqVI4MMsj6D58hICsMRLDutL+bM1B32lFRuOqqKCx7a1zt2qLOOqZg3WlsbVHc+3wO2c05LZZf/iS844rl/4/QmtHNOb22N1C/Fay3TUd07Mztxeio37JlLVYkPb+++vhlIeeH6K87HdcUM1R3qhlC3ZxJ39yAQxbZW3faq1x0TwKgNb9qpMOhJJ63G8g0j/VAny6W/79Da9BfLzsS3fevLTMSA70YM0ZiuBej1xseyJEetZc3gRgTQaz+RRD/otO/KpY/qqqR0KraMsCYVfXY7iBnVY1tWUe8qvYTFcxNVLCBjA3rToqwcFKE9MrqyqLQwyjXA8T/AAxaUDrCG34dAAAAAElFTkSuQmCC;" vertex="1" parent="1">
          <mxGeometry x="-302" y="2123" width="672.29" height="373" as="geometry" />
        </mxCell>
        <mxCell id="ReHwsoFXrBNR-BmlqAqF-35" value="" style="shape=image;verticalLabelPosition=bottom;labelBackgroundColor=default;verticalAlign=top;aspect=fixed;imageAspect=0;image=data:image/png,iVBORw0KGgoAAAANSUhEUgAAAyAAAAMgCAMAAADsrvZaAAABXFBMVEXu7uEybOX////9/v8zbeU8c+Y6ceY3cOY1bub09/5Feue6yuJJfOi3x+L6/P9Aduf4+v93nu5Mf+lBduWKq/Hx9f7k7Pzq6+Fij+v7/f9QgenK2flqlO3e5/vG1vhvmO1mkuxCeOfo7v1zm+5JfOXh6fzS3/qOrvGDpvBfjOv2+f65zfelvvRThOlymeTs8v3q8P3D1Ph/o++hvPTW4fq+zeLu8/57oO+0xuLn6eHO3Pm1yvarw/VZiOqxx/aeufOat/Pc5vvZ5Pu+0PdWhupciuvk5+GXtPKRsPJ6nuTQ2eKowfXD0eJslOSuxfWGqfCYs+Pt7eGJqONNf+Ts7eGEpeNRguTI1OKet+OTr+NeiuStwePA0vhnkeTT3OJWheSjuuOOrON/oeOUsvKovuPh5eFah+Ta4eKxxOK7z/fc4uFjjuTY3+LM1uLe4+LW3uLg5OLt7uG5yeJxmepfgq6jAAA0oElEQVR42uzBgQAAAACAoP2pF6kCAAAAAAAAAAAAAAAAAAAAAAAAAAAAAAAAAAAAAAAAAAAAAAAAAAAAAAAAAAAAAAAAAAAAAAAAAAAAAGD24EAAAAAAAMj/tRFUVVVVVVVVVVVVVVVVVVVVVVVVVVVVVVVVVVVVVVXYubvdRIEwDuPzJgOYNh5xwA1wzJmJ3gCJRhJKARHjWg3Vpmpb9/4Pdjd7spvsRz+0DPD87uGfTDLPDAAAQCuEz/04GwdRFIyTYrDzFICfRsNN6fbkF46/TwYnBXTeqAos+SM/+BoqoMsOya2Wv9Krgomgs06zcU/+w08mCuiiY2DJK7jZowK6ZhBpeSV3PFNAh3jDpSNvYAXTGwV0Q7oo5a3s4DpVQPuFi62Wd3CWfa4P0XZecSvvpfcPIwW016G4kg/JKy5G0Fb3a1c+bHt3r4DWOU3WtpyFWzwpoF0OmSVn48cHBbRGetxoOSt7/ayAdphFjpydnX1RQON500AuQ2+OCmi09Hqv5WKcgEgLDRb2V3JZuhwQaaGZvCqXy9N7Ii000EvlyyfJH4i00Cxh8a95MBF02i625JNd8XodDfG0caUGbkykBfNNEkdqYs2JtGC2SWRLjexkpwBDpdNIS816AQUKzDQtHTGAZiIwj9cvxRR6OVWAQW4WZe2Hq98wEZhjVOVinO2QSAsmCOcGzuM7vboj0kLdXmJfjJUXFCio02Nm8Dx+8Of8pIW6TL6xd6+7SURRFIBnHwaKVK06xvGu1RrjDeOlpphYY4xEEJICYqGIQAOCIPXy/j+0/dFgOeBAGTh7z/reYcPMrHX2KTpkvFgDCx5gEdIpBuOxzyn+tADmK5MyIhX0JlzELTwwT5l4mFiJ7CJehznJbSy+cjVNSQvZIcxBomNG5WpydhYLHsBnbtOcytXk7N4GskPwT6teY/hwNcjewel18EmyVCABak1khzB7bUMrV1P4VMeCB5j1eMRIkAIWPMAMpXeZfrgazWng9DrMqnIVIYFieZS04Nhy2ynmH65Gi+KKETimTFbcw9UgO4WSFkzNXa6SdHZ8G9khTCN3yrBFDD6xsxmMCEwqUTH8rOAs9ZYRr8Mk3LqI0Ny7r2iggGetErPTHrNQQLwOniS3RIXm3q1hROC/ug3R33XHi21hRGCcbpzJIga/OHkseIBR0nJDc+/CRZS0QCctOzT3LpJCAwWGKlfyQ3PvluJooMCgTDBCc++i2b4FcMDtiDkrOEN2bxkNFNi/+wbjoWfvYEQCL1EPUOVqcrUmGihBliyv4d1jvEIJO1CCaq8cwMrV5AqI1wPpezGglavJrTUQrwdNW96eEj/F8ojXgyTN7faCxXN2sQMlKDIcby9YPCeF+xOCYL2Kh6spReLbFoiW63C+vWDxlrK/kR3KlaygcnVc0d4GskOZ3LrpnZJH5x8+ePDs6WUymr1TQXYoT7teI6PZV5/cVwdOfLtIRrN3msgOZUmWTa9crWyG1KH7r01fl12rIzuUI238eNDJl2pQ6IrxMX+h1LVAgnbe/EUMK8/VEW/N/xi9VkZ2yN7HdDFKxou+VUOekfmW8ji9zls/Zf4P8V+31bAT94gBJ4/T62y5mTixELmjND4TC3YK8TpLufUel1TwttIJGZ6HHIpmUdJiJ/G7R2xsKq33xIVdXUcDhRO3Yngq+I/wNaX1hMs/4EF2iJIWG60mp/EgunxaaT1eIU5quGKEBZfdnpKrSu/0SeKlgJKW8bpb5qeCR51VepceETcOFjwYrdXgNx6jByT0ivhxUNIy1peG6RW/yQZEvSOOIg0seDBRm+0ihpEDwiJL11gqoqRlmFyf8d03Ix+xeP6D7IviihGjbPdYVK5GuKH0TnOJ0nXsLEpahnAzzO++eRVSWve5feY9ooqSlgFyp9gvYjh5Rmnd4fpSdaiHktaCJSRc7rFyR2ldJ/5qlZwFi+KavojBo+tKa5MEsGsdlLQWo1Xi1ikZ5ZnSuksyFLZQ0pq/vYaU8SA6r7RukhRrZZS05qvLslMyykXeB6a8cPItC+bly66k8SBaDSmNEwy2TUzAKWJN0Hx8z/OsXI3xQmlcIWHCxT0L/JYoy/r3OPBZaXwgcRy8rvtto0ACPVQa50mgr+sW+McVerPgXaVxliQKl39Z4JO+jFzQY5/X8BXvU6viuIhPTslJPo64qYZdOkdCfepb4IOOzMerfZcvqSFnVkmqGF5EfNBk320dLabp816Q+3tA4WULZqzDvdQ+TuSWGvKcBFvFUZEZWxeYfgx4o4Y8IMlWf1gwQz9kz8cf9u60OWkoCgNw3nMDAUQ2oUqBomJL0SJItVUKRdRKtSN13/dtXMbl/39yXyHbzYWQ5D6fnYw6PU1O8t5zUKARZ+FrT+RXdYFevYa/rfg37K7nuCIJcws+94JGrMPn7iqSIHv8lWsdI+vn0yA6QrINEeSMbz8Q/pb2z9Q4697L0IkYV+F7RRrhxcG8Nr1RJAE++e74x6gajfD4UCwrbstR8CJcgv+NFgjzb9Lkj5eK5Ng7H0cuftui/6V8nKz5bZ88P+XcMwTAmAIJwIMl8ECRHDrj82/owS6Q93KonFN7EQSjBZIIwiMWNDkC3qnjCIIxTXoMQSA/pzv0Kggt+tgjhd7b4MnjviI5sgeBkKURRQSBKqfJyXdY5rQSjVhBIMj3WM74YP0H51STXAA+pQN4rkgOfAxECxJbozEeIghuyBe9TpxCAKjnaRy2GoTfDprcGC2DvMbCm4y+Cdqx9J/2KhK/K/C/g4x+CGTkHfcUidv+IOQtKvRTEA9NAY8UidsdBMAyfeX3JWz6NJno5fcSAVAlXRUEgNylLs9KGdomXcsIgKuKxGm/r6c1qLFaJTvonF8kXec6g91yLebnqauyCXHgk1/H/WQqg2FhMZdgZI4lcqVCp1r2bbr3kFwRzesNfCdW3N5sRxnZl28WOtkDPiyTiDwTwus6fCXe6iw1GDmRb7Z30kn4i8wr8vLPRF71QnZjLk9iJM5ttuo+6ktuKRKXj/5oQdTM+rCUIrGiS6u+6UpuK1Jgk4pqvboQpYlgzWPLvthjqMpNCAFNKoZrg5GGXCgWXahe8P7DlswrBnFeg5p5sZSnyYsuLHv9aJXMK3K56OXThJnlNqNpyT/09putK4rE4YNnnx3UYmeNpmtxpebZ/y4ckU0Ij6fwpni2RC5gJ9c9exuReUUez+FF9ZUcuYQtvvDoWy05Po7DNQ8mFbXyAiM3sc0D8CC50JPDJ3iNmi4xchtrH/ReM7JPjjbx/9Tq5HqJZsO5sudK5LEiuT5T8VAxu729XgthEtTWYZodkyqRcHF7o93ezNYi+EGumnLNtUcQKVQ5yei7owtFFYKF0w2aLaWKCtHqOyn66fAgjO9kXtEtH/dBoO4So99YoQuhin2aPYUahAqt5ugvi10IdF9ObnA1qVhO0D/yLzQIUztJM4kV6hAn8/+/MrEOccKfFMm9pGI5T/97m4QYsc2jNKuOno1BkHKT/pc6AHH2KJJrScV4jkYt1iFAcjtKs2xtNwwBwgM27uIaAJlXdMf+GxCmQ+Mcrvm0+fhXfwuOqTrTg3uQeUW3fNAgSiZPY0WLcCa+6f53QXNsZx+cCQ1pvMYhiHJEdumuzVTcJR2NGpxYnqUvH0YaLRVODElPEaJE7iiSS0nFt6Qn1wW3esELt48fWCEObpFVRnoGMq/okv2vIUyDdJUy3B/O18hLmi3wqjLSNYQwlxTJhscahDlK+vpJ8IgVyGsW5sElnSd9byHMjYuKZN1pTKdAqBCGfRWvdB9/W6uAQzlHBjYgjpyv6FZSsUlGzkdgU3jHO93H3/KbIdh1IUdGdvCNnK84fY8gzjEytKLClu458irb+an6HBlalnlFd7yKQZyq2XcCFdap6ynyrqNZ2DHfJEPsAsS5r0iWnVIhzoU8GeupsCrUyZNIqbm+yfnAwwkSiL3VbNTHIhnraxBn32dFcmWmYmSBjDHLT1mZcyQIO3xiNXswo6Fq/McqCHfL1U5hjZEY/a7l+jhMJtYhkHpakdyZqXiAkYmzqrULzZEIqUKvUj+EH15YespXY7VWZ46RANGKxfrok4lSCCI9UySLztyAUEMScg+pJsixxtvtAxr+cpYMVfGXTHm1nXJen72IkPtHvgahrsjJDVZ9iECoWJ/IcR+iOn67y/q94si+wR0ytD0y8Te9ESWHzodgpl4iM1mItU/OV3RtpmJmkUywYQSGkufJkaMPd+c5XkKfxSjtYO8cIyfacRjrNsjMqoqf5HxFS2YzqfhTvERmNpJmJ075Nc6vxzHeCTK0grHCB5zVSKnusNmKZlX8IvOKU3btNYRLbjAycT4JXd0ScWPtahy6Foj4whzawWGDEa9cGfrKUTKRq+Bfcr7iFD3eB/G0KiMT/Th0FA/zz8td3QpDX6RtUrUwcKhVSBGnaBY6IlXT+ljqYgJuX1MkjqSiKAcXyUTpgk59pLgPYrRCMBTuk6EFGFJrHd7aZdUIxlHPMjKWX9EwCSGZV3R3+7M2TJGxXBpjpBlxWdvYgplkkwy1VdMrVPuMeLAexog9JGNs6QAm5KkicSQVBTpoNnydDUL4XytPPBqr8zAXi5Khc2GYOtRaYsSBrYRG2/OTZKyxq+F/Mq84VTcPYXLSZj9LJy/gX8uMOMz1YrAiniJDzaS1lVZ8C9+GKv4R2s2b/HV6YUzOa0Wy4DImKbQ8R4YavQsqEJ4P4bvdFNkXHcRgzXzC5EoWLxTSqXwTnSS+qx+obdXKg3NkKNGJYZLCZxTJ/e3P4RdRs+XKc40ULc3z3j/WVmOwaouRoVTc+naSPtm3qQJIvkiQOfawDn1yvqKp2UwqjpM5z8jcWkvDcorsYhsxWFckY4kMLNN2m2TbRgjzBbJgrhKBHplXNDPDScWxKotkwTH79w9W2IIdFTLGurAhuZIguzqWVjfkVmKYvEeKxDVTUbzQTpQmoGl3LUeaTByELfO2lyQyRuaWapiGI7IJMfcS09E9yUiw6I4Km1pkogKbinMkWiOL6YicUqSZ2f6sDqIk1NIWbKuSiTTsCn9h706fGikCKIDPez05JsbJkIVsCASSrIQkQIVLtoRwBgRFibq6arm1XuWxq5Za/v9V3tQuV0/3TNIT7d9nvvAhkJl+/d5FwFjNVTAq7zmWzLcYmWKT8fH2Xajbp8Q61LWrjE930YWE7VccoftpjE7m64AxOVqBjvOhXEtK9QTjIZpFjNBjx5J4BSN1fMg4eKfQ06PEAbSUFxiHzhlGyrW3CmW+xGhl4vhj2yhD0w4llqEnvRTH73WMkOwe9N3GIal4C7flMRrRT0PXE0r09H8vnxHNFDBqXznWne7nMHK7DUbhD6BvmxJ70HZcZRRCIZho+xVH5W0Xo5fbpL6FMiI4pEQf+grPBLWJRRhw7zvHussnMCG/SV0zdURRpcR2tKMeQU3iIYyw/YqypKIROZ9aRC+NKDIlShxF3jfXcwEVNq84Ko9hxj51iDMXkdS7lKgimkqDOoI81Ng96JH4zoUZK9OUi7/8puJRYiGLaPLb1PAMhtyz1SZJSCpek12gskYNUZ34lFgtIKJ8X1DZJEz5ybESkFS8Zo+qFlYQWXuaElNFRJVZprIHUGT7Fe8wlklFhVitbEJaX01QIjhGZJkNqipDle1XHIE30zDlJNDvf9b3gDJ+G9G5Zz6VNAsw5fF9x7rNOzBn1qMCr4g4tCgjaohDjypm8jAm/dyxJJ2KZtQaVLBZHs0XOzGP6FIbHSq4yECZPSochR9gUrFEBd4gi8jOKLWOyIpqF9VPs9Bh+xWH7v17MMndVAzxVhDVwQheuLoDjyrEA2ix/YpD9zGMOhNU02ghonNKnSGayo5PNaUcTMraahNJp6IhRY+qgl4dkexQ6hRRuDolJ+cw6lXHSlRS8W/uGjUclRHFGqU2EEFhOaA6UYMOm1ccsl8fwRT9FRDv6zT0zVFqD/pOmtRylIIO2684XN9lYE6uQU3bRehyZyjVh67sZEBNpzAoZ48Kb/YZDDqlttI6NKWPKLUGTbk+tXl5mJO1U2w3ewvmrHQYwU4OWgoNSs240OHOdxnBkgtlNq94k/9EUhHuDCOp1qAj51FqMw0N6Y1pRuHXoM7mFYfqjTSMmWVE/oELdfmAUo0C1LUPGVHDhTGvOVayjgmzVUa2WYGyok8pL6fR1RAwshbMedOxEnVMuMgYBA9dKNoVw7gdXpljDLo5aLFTbFeNbafipdQW4yB26lBTo5xfhJoHW4zFAdTZvOLw3K/DlK8Zk9VZjftSsY6wobDDmPg5qLF5xZuMd6fiX3JTjIs4LSgPsMU6wlY+5HVjVo0F3PvGsZLzCLLPGB0eI7z1mPsT0meC8ekcw5R3HCsxScW6xzh1Bi7CmmQIEwgr3+QdxinVa/OK1z1CeMn9B6J2o/uAITxEOJmHAeM1vQJDfnCsK35xYUbeY9y6Ycegz2PscEs/EYzbEgxJOVbE6bUkpBRvJc4zCKMXX7K23OU//hNPIT861ss+ghmFKQ5DdTe2OsflUNVwHodhA4rsFNuwfA4zFilXElTmT2Yg1WcIPUgdb1Jd1U9wybvNK17xZgpGZI4o1Sk+9KluJqc2wKZ/pVBrZbGZ20vwzanHHzrWi16HGROCUqea3/C3WpA4imOJINcXVLeURX6LUo0cjEjbKTYD6896VVilFIDjLaoTstKTKkOYwZ3mS9RwkQLQEpRahxnfO1YCkoptEWasT3/GsFqWD7BFGmErnAutZSz8Kd2k1CHU2D3ooXi/DiP2KLXt4i+FOWqYPsjiVjWfErKNqXJVUF3QcvGXeUEZMQs1Nq84DE9hRHFKoYiz0KcG0cxLut31J3TSkx1q8GZVaod2YETGVpskYHptkVL9LC4tC2porEc6SKeYwM3ya4Iauie4NBtQxq9AiZ1iuzT2ScVsiTL+8Ys/vzhNDWIpj5u4VTLCe96JKcrIl7GWEvum91PHuvThI5gwK1TfsbYC6liYxw3mBUMJcrgu1Quo46iCF1UEZRpZqLH9irF7noUJF5Txy3jZ/BR1dDYKuCp1xJB2XFxVW6CWtZR6ffZvMCFnS95NHxPWG5R55uKK3S61bK7gig3BkMQAL3P3PWpZTuGKcocyPZjgPnUss9Nr61r3wVcOqcUbZPCiRcHQgpcvYe3OUYvYcHHNM8psFWHCZ45loFNRae9gDjcoblKLWGvjUr0nqMDv5fCv4sYqtXiTuMGJSGhFlj0qvHQ/AwOKnuYYWe6ZoJapXtvFn+qDEhWV9ttZAO7JwSr1BBO6EwxrMOGRYxntVBxQppnCjdLL1NRpXuwfnM91BdUFCzP9mWqHmhoPtPOaU3mosP2KfxvzQhN3Tv+yq7sRcMyU2riFPJElJqHGTrH9YdyTiiseJUp53GpScKxsFqPkCeayCM0+hPxj3DsVB9Huuq5vcYxs53G7yhYlghUY8O2vjvWnpy4MWKNEp4271LocF2IpG7FcZQADUrZf8W/fw4D8VNRpp/YCx4PYS+FOtYASfRjgfuxYxqbXJkTkt//5TY4D/yCLu7lNSnQLMOALxzLWqbhHia0cZAprTL5g4EaP/YsJhGfzivF67mL03GocF4UK/cS/zPIeQK7iU2IZimy/4nh3Kh4LSswjjPOEf0JWTxDGE0osFGDAz45l6JjwjBJTBYThLk4zwUq7CKVFCdFGaDavGK8fYMBabBnvQYeJ1SwinPq0PFWgwE6xOWPeqZiTJf7EPMIqTzGh5lIIq5/IF72PbL+ioaTirIhxnby8ykTaScV4N2YhjdHL2H5Fx/kEBhzEWnaTLzF5xL6L8IqB/PKxGrsHPc5JxTlKTEBF/ohJI1oxZ5vPoMZOscXjw3sYPVf6CFKEkvQTJkswCTVniVyb+tz533sKA6RlN00oSp8zSbwaFJ1QogQDXNuv+D0MaA2hLO0gQUeGpV2ocru823QdBti84gcw4IJ3EzWoayXmE1IqDqMkbAIGfOL8z73/GAY0ZQGNOjTMJ+TIcDsFDROJjGO96/zPPc9g9Ord4dR4zHpMgLUCdFT8JHab/M7evXYnTsRhAOf5TwIJjdwKCKXcl0Jpq6VgUXqDFmy12uqqu8e1uqv1tupRj9//hcf1eN3dMEkmzJTk9wHavmAaMvPM878X9H7FFUhQKJK9W7izJv9AhF3BneiA7LViWDzj3Uiw3YcEHZqjBpesMsnFxgZc2lbyYnrQ84rfQoI+2StacKteIplS13DtWslLU+9EAu2tKCSokL28Bte0p4ykMZtwb0Zz3EKCeCTQHkKGMtk7hgfRMcny+hE8iKWUHMYW7GqTryGB1vW35OaWkRT5I3gyInsjOBDmFe/u6LUpI3vr8OaAZNid+fxqtg8nwryiAG/dgwRpslfMwBu9Qotn1vyel1LUIcGjSIDJ6VQ8J3v7UXiUbNHCncCrwvwnqwSrP0eC63vIcEX2BoKKf/ntZp83TpAT+SS8sub9xj3I8F4kuO5Dhh7Zu4RnsTzZ4DthOGHkwCU80xtCH1Jhv6J3jyHD6QIKPC7Jgb6GF4hWiB+rLiDDeQVe4VGhEN9okEDLk70mFvsdq6J7v8jbXVvAqq5Ahnhwq03egAzJHNnbFFObwmtSx0tMTeLV0BfQpjeBFD9FguoDyGAVyRaz4F2BEaeczXrcM4lTPgrvqmSvZcCRMK/o0SPIsMPIVtdY5BOk24GNW+JkWvBuxlnHyi8cxXbnOhXn/5/chQBt4tQXM2ChuA7vMoxsJSzI8CCozQ0PIcU12StBgDPicxaDrWR5YeeEgJGaGzGQIRbUl5AnkOKCI8vrlZ4jLqcW5tjk/EmNGLzbJ1usACfCvOJdHL0GjP0/ckOfuDQ2MVc6QVzG8G6g5FE6Po0E0of3IMWh/5+0mUk8ik1w4DxRz+3Asy0VZyAEdhTbu3DjLnwK4hPO++MaOOg94tKw4NWhiv28QCyYb+nfQ46e398jpmXiUomCS71FXPIFeLQt+uEa9it68Ank6PnbIJjsdInLqQ5ORyZxYVtTTfnXs7BfUenRawAqfi6QeH+XOBXALUucWKkQg3tZ0Rt8YV7Rve9WIUfJr6xidNY+ZcQtDW5j4mf2hhkN7nRUHIEA4EEQ+xVXIMmI7FXhRnK41WB+XQGskCNscrkZgwtDsncDObQg9it+AElGwi+WRqfXgyI5VdKcdwnzM3t7lgaH0irW8wY1r/g5JNkQu0Bi1a0WIxfMuKtoML/E5GRTW44FEsB50A46FdVdIMZOp5Qgt2rglCXXcltNawkWSABHsT2EEyq+g0Rrx60EeXDBf7TpRXdwPtXu+ALRgtev+AS8VFwgsUy71yWPbsDHMMkj1ni6V9fu8ALBK5GgeQdOKLXNq21elovknWmAyxEjAbobt0ca7KUV3cUKYF7x1cdwQpmDQi2TraRIkBlv46EgbPfpMOllm/cMjoWj2Nz5IgZuyiwQo3p42iVxrnkjhAKZG+dTvMyeogeFwOqvkWD5DNL0yF4HL6LFO09zJNYheBgjEovlD5pJvEhWyWKsQPYr3oc0W843l7T1/qBLwp1GwcEySThmls538JxzFQfdBjOv+BjSHDqLgGj14dY++SKxBg5V8gebXFWj+I++onF3AK9FAuUHDdKMHXzx0TbHI5N80+T7e33DcpX2mvoXpv6w+mEkSFYgzwXvpLFM53iXkZ/64FAhXxXLV2kLfzpQ88rtM8HKK34AebJc0w+Ozkv7jHxWwnzJPPmN7fayFs8ZahryfB0JktcgT5Xs5RAfHuYZLUCjzplU9B8bXFbr82p/ZnAozCu6881HkGc6rz+wlGO0GGyd/4HnP9YoKlkc96dHQWpueKhBHitByqhswp5WG5AyEnHIo/8SCY4nkChpkjrMrYKGl9KrvRSpY1+HRL9FguMdSBTLk0q6ZzUNL2Q0S4xU0tLgXJhXdO7jbyHThNSSqlQNPCeaHqm1PFxNNw3zim78EoVfFDhYcKFYacbwH8beQLXlQXQGme4Fp9rke0h1RQoqD6P4W/26RQo6hExGcPKK9yHVmFTEBkMdz+hZJZcH0S1cCPOKjn38I6RKk6Je30sCmezrpKg0XAn7FR36YRUSGYVjUtb+9XaOlHXanmmQ58HbkWBYgTTJ9KGy/5/vArbbz8CxsF/RmU8hi1aikEc9DY6F/Yp3JKnYptB8yl4KCUhe8dWPIMlQvaOFOyhRhSSPIoHw0IAcVZVyTXdYagg5Vn+OBMETSKFdh+tDEHaSgRNhv6LqSUUtvr69SyFhWHm7FtfAK8wrKlxoEtvpHJ+a4duHcKnWVrvAN8wqzCs68JaBhYjWM7X0Sa+h0PWoJcS6pzf9vfUdS9dgI6w24fcmfGTo8Z1ZYdg/Lk3y3SIjWRLlUe+sN2HkPza6SKc7FwcbXUbSsESuNdg67N/uNWubR89/+QqrTSQnFZPT4XalZaYSRZKLma3KdnNHwzPxdoP8ldtO/tOrXRtvTXIKfJlkqVYvO9PxtzCvKHX683Q82lfgY1Hcr5w3d+IG/i16wshHowz+R89U2zdlBTbsmFnKJvGXsF+R18+rEErfmzCSi6XypfP0NIoXaqbINyP9pbPh1tsHE+lbE90DC0I9WP6XkBUNIk03GEnEzNHlcBaPwUaWkU8GFuxo9Z3mWPIuxf4QIulfRJbdpxCpkyBJEruDfmczjvmMK/IHq4GHflS9OGulGEnBLjU8E/Yr8nkfArUZLR4zK9udmhWVXsR1pjk5Kj1Knx9IeZr0AYR5RW73IE6a0UKx3Olxe9352dgx+WIdjtU3h+elxmL3v9keEOYVef2kQRgrTwuTGhy2q2tJTaE7vt043IlZheHJzeI2/sw1CGMsewHpE4hzSAvAzPLZbXPHgAdrRfJBGd5YhU5/43VG/ruCOCuR5fYVhFlLkL8S+ePb9DRuwKt4inywAQF0q9bZHvm8H5yoQ5gvI0vtw8fgJL323KzqEKTepT+ouED+FNsgX3UgzOeRpfauDmHOyF9DQOk++bIGUWYp8tUlEPYrLnr6c2xA/rqBKAXyg2kBd6RKrwJhYsvdr/gJhEk2XGROnRyX5TIQ5JZ80YQg+oR45cqDsvM8ZEmDMB9Eltnv7N37UxtVFAfwfM/d3TwmJiQlkbwISUugeZgHCEp4NCmUaCtoUeuD0Spqxepox/9/xqmdtpRH9uzu3fawyefnTn+AXG7OPed+79N3tkBUtXGS2tsqrpSI6w40KdA5wqJy2f2k6igPGOm5pUZJOd1BpvOKDO/fgDaRGnGpbONwL4kXksuLRKq+aD/Ela1Ai3iGfJExoYVxTDZUv7+6lqvfT+Mlc2+2y++kNKDPUSjAHkGjbe7qaJ47j4otjcr5iDl8W2X6Mp0l73Boa4ZsZE0YlbkFvCmeanQUccxCHyPI0SafQ6Me2VODnQXTdWU6Dx2sDfLJhgUdVtx3+iqpflWRHbULANN8xbecqZjskI32ZtHAlW7XyUZ0DhosKPKJWoAGsQ7ZUGVcLd47jtJ4XUznFVm+PIJOh+Njlhs3MZZRIzvb0KBBvmlAg5EiGyUTY5mHhXFrpL0FYDqvyPCrBZ2ShTFJBocxDaev9bTULuELiTg8M0pkpwk7xl5zka6gZgFg2ipkeAS9Klm6jFo72AVDK/c2WsD7dBk5QdI9spObA4PVq6nLYxihV/hJKKgeQ7P8kC7KjmJgCXfJTjsNj6wB+WiQfAsDCathsFjFRpTOy+1Dt+D20h9Ct/BK/dyZbr9o6Dx/bcKjm4ouEtRNX1c6D2nN2UKGzlCFLbwyvXb7LlJ5W9ud15eamgsmHDCjZKcehzfHdAk5A2PGkOyoNJxI3twsvBifV+3t2xG8Nk3ofTcv5xjF/YN+f3NUDMOppu9byFaU2NTi9mh9/c7dNvFFW75vIF04Zuymer2beQO+eBgKqs8gzFyO7GRa8GKH2AblCP5nLVffViSCydhAyhAmuI0QcQskfOxzryFWJab6Pl5LHhBXO+7zm3TDMIT5ORRU4hYI1smW2oN7PUU8ahlnGU1FTD24F86SrRNIE9wd5ANIY7XJ1rwBtyIF4lH7eFPklJgKvk5h0Uwc0gS3BvkZ4uyTn1/CFxLEM4zgnEqHeBK34VZ8jZNIIk5wr0x9C3HSUbJVNX2eyKfEHC7YnSGeTT+nxNRtiPN7KKh+hzwrZG8H7qTXiKePS/SJwcvAWDHH+n4pTnBf0flU4E87r8hWZheujDzdfs/P+DuQFR7SNTzjBcxfQ0F17wbkafh2pzoyJJ773nooqxG4sc/7r8UJ8hshv0GePUX2lv0cw6rGcKnKIrHkUnAhXmeNeskT5NSGTyCPUWB9hn0cwzrx+hWtDxc2yN6iBXmCe4j1PDdOoD3lT7chPuM1ITGySiyJtE/1UQryGEF+ZOpjiX+RcOzPZ+WO91b4uiKWO760QChrQp4glyASh00A3FZkb60FZ25kiaUQwZUi88Tg4pNsbFzXDSTAgybPPYZEDWKoGY4HyTlyRQ2JKGrZjyHjgcT9PvxhKMj+uQWBWsqHwfJ5HcEkkT6xbMCR3QTZUxKPsPDdl6FA+woSbfPmQbR9Bvk9yFaGGBxGsyUXiaEmbs79ucehYPtb4rbNnAnpxMF3oOm+047+V86MLjGoOQh0K+hvFIpshXBPnFYtcKU7xFFNw0a8TRydCthmFTGcCpwLCvJ99Jc+lThuArNDDKoJriViGel6C14taY5CTeQh0FFw57CEVyHMM6d/wbRKHKUYbIUHxDEEUzrLnA+TKOgVyHP3jiCQNU8cmTmwzCliUOv61q4qas2aryYh0NNnoQnwkcjTkV1FHJ00OE6Jo2CCwSoQx11wWH1iLl2BYo9Ck+CZwJu3AJrEslqBvUqU90dfZ9GQiYHhRBFHTWKFbgR5TPGsP3+EQLEssdyN6DoU60a0Png9gq6Kn2a2INAHwY11P+dRDAJxJwM3LdgwssQQ3QLTXpQYshHYKSa43RmBvv4jNDG+l7iDo68rzHCdOJq68xnXdeWgLkqc4o39FZoc7/8EgdJtYlEjQ8MYVj2uZzidH7Cwu0Ysqgh5jCA/TXjRF/Iy5AD0iEedYJxWnRiW4MAsMcy0tKx/2oQ8RvBb6G96IrFQN+aJJ9czvJ6HtZNwoFL1/KUtnyWejsQWyGeBn8E67weJIyfsrGk18jq2su7DCULGwJXiQ+LJSZxyP5qgAv2l9yT2C9nvQamr95AUMQzCcKZGDL3x+8e1nTG5EdysuDE+h0AHxKT2Ga9LawxkKyqyt2rgcukBMZUEnmBFPgpNJImFulkidqVuuR/D6hpwqkvun2rYahNTTmAW7wTMuF/uV4mFej5HXPcNtxfcE3twLJ1wfYF3LkNMahbyBDkp7hreDTlUxHVaYT0MetGmX8NiCRMXpTLENS8wavTon9DEek9gR924S2wbMVcdi2gcLsQzZG8f54VPFHFlBZ7w3ghyUNx1fDEEyUViG7TwJqPEynlz5YTsDS3A7WNulBB4Dd14LzTJnkm8op7vEFv7Jt5QVmSrY8IVK+N8TCR2TGxqBHl+Ck02kYX6siI2tWTgjALZm4VLKUW2jnFWfpH4+pDnk4DHYNl7IjEHqEl8qpvEK/Ec2RoYcMmqkS1VwStGaob4BgI7t0cTcwXkag8ErhCjQQ6U8o5uSi3AtaJyNJC1kiC+TAvimBNdoEvO603WyIGZE7xgdchWDR50HVQ46VVyILoAcQKew3utO+qtLDmgGiaeKzP+6RbY3D19W8b/Uh1yQmKBPqkd9PPuiXyZrU5OZMvMicKG70H0qwCQPFDkgNoR2JGa3A76eX8IHJBDKkpOqB2TEx2USMOTCmMLyQNzWXLkVGCB/uMEpChyPRD4+8GyIkeyxW33PUKdmaaN5LYiR2oCO+ixP0NTskff7yhyJJcjO+0YPEp2yE60RM7U4hAnMi3QxYe+Gzuk2yw8WybdFiXmVE9KSNy1LtStA9JrYMK7LOmVlbg+vpqIFF4n/pD4OFt4W5FGqgwNFhKkU2YP8vw2cRkN9h5JPMqqnJJH+hNvjQJp1BY4wTvhI+5X+UXgUTysBmmjtqDFbo7Guu4NdFiTkeIeiEJd5x5yDE0apMuayBDFaYF+uXtPIZClqw6ZaUGT9BrpEZX4/QqfhKYu90RioQ7zQJEOO9BmhbSoilwfT++Fpq7wQGKKAyI7irxbS0Ibs0MarEk8v8KtaQd9jG8gUeREkWf70OhQkWclif0P3Jh20MeS+TwblurkUTYMjcxhMPvnwDehqXHeF1moA8UZ8kT1oFWKPCoInE8E8DA0Nd7fIl+JBhaq5EW0aEGnfJs86cpcH99NO+i2Hoh8wBCIDcmT6P1yElqYcydDRV7kdiTeLwBuTTvoDI8ldtQBxLrkjao2ei14FFtvlhR5o5Zk/oitB6EphoeQyVhR5Flnc71lwRUrXV4Z5sizThkiRR6Hpji++AxC/cfevX8lEQVxAN+ZuyBwaAF1DTQtlIcghFhRSZCKdXocNbN39n5alqf//5fyVebeLbG9e2dpPn/BHj2r97szd2Ymih4Q0/ViOmZCNxLpwakhC72wQPPzFcDr/35I3FF9IhrUAVp59IhoTM2lSvEQ/JkZil9LvWmPW+gR0aEZzwGecQU94BX1beGOQO+ITGO+frWYSpeqA31wQCQ7fC2dKs515muWQA9ZFBeA7Fj7YLAjewtUmSsWqiCsZDlaq9WmpxvRZNISqMQoye6rbQMc0Ltyl+Z3lm2lPAYV0ergNg7o3TlJcdzinkRbYBDZZI9XYHIFvVtbD4CuSRuDh+7xCmCJp7h37RbFO+r74nUMmMwywfWD+2JfDda1S4R/oxBZqWGQDKXphjoYuGWw7q1SXGD4S/9IcJJIcpluOgcwnxrsWMhW1HdNNjAY8hRHl/xyd9Vgx/KV4gLDA7LngvBPJDpH+awKsMTvR28G9W2lBaSuTrX1ak/uk8GO7QThaLljEom7TfwnGPpisH/wCkgz55G4AtD20WD/4h7JcYs/pZE6QXK2D68h9MwnyhV1aCJ554Cws3wH/Z9t0bw+vaM/AC0n4wTXR+3L8RpCD1yg+4acRvoE3SIIV9B7eIHhjuwQkjcaBqLMSwbzBN3W9wqSRzeDcAXdK+8oLjDcMYPkkT1hnTWYV7aoHhNKSF4VaHrBLe4eukC052QRySPaacJrCI3/IaiX0EVySKCfRMCOWGGuoHtrlWZFvYguOqGJKRv9YrcnNtz3klDEFXSvvaNYUQ+dRzmrBACxmXoDlRPT6zMxExYtlBuleFfqJlfQPbdFcJjcaYFyTdg1PLluo0rlzmQcdtxGOTEB5DzgIYp7ejuoR8ZQLjoM+8z4TFtRHsnkmxf7I39texkDanLc4n5Q7y4wPCNQKlqE3yROXZ1NoreSs3OHdvIUx4X8aajtQo/wGsLf9eoCw0gdJcpTpyLgFJq4UogKj+ZeF26fDkue5/RGEiXqxK7cvjKYGu+eACWnBDrlr4Gr4YmrY9MC/4Wo1ecm4uDCPDWKThla/0KWDKbKJqWgHhpBp3wM/qL/YmUsXxbYLRHNd86l4vBn2Xl0GqF07fYFD1E8pFeD+ow49v29SGJxpbJeiFp4FFa00Lk6Wc2acAQt2VNdBDKyWwb7XY8G9fACOt2GriTSqWJlef386NB0NJnJiH0ZK2mP50cLneVzg6lSCLpxG52GyPSyhbjFXa1vZIL6G3RqZOF4zHAiFo/3D1dbrcXqcDwejyXCJhzLsE25nH7HYGpdJtL6Xm2gE4n9Am10ahBpWbzJawiV+5ADCqbQqUYiIcUsdJoCCt5zQHfXWwsMpZ94bwAJFXQSKdAvx3fQffFI/1fLxDw6JWNAQiuJTuf19yz28RpCdz1WUa+gxDrQYM6iRAV0e2Qwf5xcAr1aUZQgs+IshRJC9+O95hZ332zmQCdzBCXG9Z/89kRslChEQKcnHND/oneC+qBAiWUgo4IyRdAoxxV0X70EfWI2SogSkLGYQYloP2gTOmEwX90FbWZRZpTMCeuHAsoUwtANDuhBpi+ovwnAcIRBlBHanvE+D1H03fMcaDFso4wg0syxK5RBGbEIWjzjKe4afAmDBqEFlFoAUsZQKp8FDXIfDKbBWxP810a5q0DKDP5ApCdr4KHBdLj3CnzmPqfBInXCAsjaiEijJ8t8aTA9Vn0P6gN5lBsBYtZRbjwGPrvPFXRtPqyBv9rogtCl1l0T6KID/nrC70dXAh3UryVRztbfK3uIWUZEAgXN3KbBNPrYBz6apfJn+Qg6iKi/XNjHQxSPI6AV9ZJAFytAzgqJrZ5vDabXybPgmxF0kcwCOfEoupgF39w3mG6bD8AnLQtdnAeCzqObEvhkiae4E3ArBP5o4jaat/VcB2TpvPqY+2QwAj5GwA8JG10IWsNv95xCN/YA/BFX0HvL6mPwwxl0YxMbn76rr6E3ppu8hpAMX4L6GwzQR95tTdT60e0uD4kj46sfQX0D3VCYOdXNgjhsgnqf+f0gZDMMytXRxTiJgYpO4SGNKX3tq8EIuRQG1cbQxRUgqqLvBQlzBZ2YO6DaBsqVq0BUfwbllkGxvqcGI0Z5UC8SuoN0RE1dvcePDUbN9TVwpfKuVPIMkNWKooyoglpL3OJOkOoFhokaymxQGvdzWFPLhKIcz2gg6VIfKNVGCZtsAnHvWFwBpQY4oBP1GJSKlamPw3KatNBhKAQqmTxEkayboIx8r61oUj5gbZvDw6w0KPXKYFRdfgEqmRuOggKZ9bFuzGWBvxGDoNQzHqJI2HPFp4e2wAPK5/qAvpUyHhAdBKXWeMsBaRdCoNRkA3+aJ/yB96B4M4P7RqqgVIjXEBL3CNRKDC4kBaKYHpuAwIjPFWqWZY82F0GtMLe4U7d6ExQzY60z6X5yc36+s3cvu2lDQRjHZyRugnblBetKXrNDghdAIgKJEMLFCEMQAdSGhPD+i0pVVVVpMDfb9Tnn/3sHS/48429OyJe/fMvpEQR0h7TWiv+kK8i+71m4o+6kOR0NRqhn9P8M2/kEdENMFOkrVQSGaCvOxIq7i6ozRcqWTAgNEvqKEwjoLusQ1FPlEdANs1Ckp9AQmGWwVKQl1xOYptlVpGRJSZyB3gjqKQlocTcSQT0dXigw0liRPI8JuqmqfUXixgJTMVFP3pKSOIMR1JO2ZsPEaAT1ZJUJ6IZbZfI8mi1yHYHZ3gnqycmtBKZjop6cNiVxFtg/KBIRsOJuhV3m+0HN5G0EVphmvWHaSAUCujWeFLEjoNvjnqAeu6XAHq8E9ZgFTNCtEppwqMAg/l5glQZPSIxKI4FlCOpM0BGFoB6bRyboFnoeKmIRvAss9MLqeyz8V4GVtqy+xyDPBN1arL7fLjcVWKumuFFfYC+C+q1mdDRY7Y6gfhOfX0AsV+HnkBsUmaBbr6e4VomAbr8BQZ2AjgitteIqPwQuePEUVxiy4u6IA0/IFTwCujMmCiboOK6tuNCTwB0E9UvVmBA6ZcddhIvMOUPomDpB/QI+Ad05Y+oWz1bcClxTJagT0BGhxQHDM9VYcXfShqB+ljUTdEfVKZM7Q2EncNRYcUqeCbq7mkvFCROBu6qBIlJ7IHBYyF2ESAEB3XEjWhwieAR0502pWzwqR4kiZMLOCR0NoJD0cmMBRKo8IZ8pLgT4pc9InStSiNAgqX/gkc/BPOSoWSjAX5qPfMz6o9Bnfo6PKpxG+C24E+AfzVVZoQ8HAT7V6jlf5eBPmwIc09zOHP6gVajx7QqnhOO5k3m9MJtSfoWzPNd7XT/vzGNS9IbtxYhXK1xisH8b1Q+Nk77G71CJX/2YzijctO4FAAD8ZA8OBAAAAACA/F8bQVVVVVVVVVVVVVVVVVVVVVVVVVVVVVVVVVVVVVVVVVVVVVVVVVVVVVVVVVVVVVVVVVVVVVVVVVVVVVVV2oNDAgAAAABB/1/7wQwAAAAAAAAAAAAAAAAAAAAAAAAAAAAAAAAAAAAAAPAF5XhOAtqEeI0AAAAASUVORK5CYII=;" vertex="1" parent="1">
          <mxGeometry x="1834" y="959" width="329" height="329" as="geometry" />
        </mxCell>
        <mxCell id="ReHwsoFXrBNR-BmlqAqF-37" value="" style="shape=image;verticalLabelPosition=bottom;labelBackgroundColor=default;verticalAlign=top;aspect=fixed;imageAspect=0;image=data:image/png,iVBORw0KGgoAAAANSUhEUgAAAyAAAAMgCAMAAADsrvZaAAABXFBMVEXu7uEybOX////9/v8zbeU8c+Y6ceY3cOY1bub09/5Feue6yuJJfOi3x+L6/P9Aduf4+v93nu5Mf+lBduWKq/Hx9f7k7Pzq6+Fij+v7/f9QgenK2flqlO3e5/vG1vhvmO1mkuxCeOfo7v1zm+5JfOXh6fzS3/qOrvGDpvBfjOv2+f65zfelvvRThOlymeTs8v3q8P3D1Ph/o++hvPTW4fq+zeLu8/57oO+0xuLn6eHO3Pm1yvarw/VZiOqxx/aeufOat/Pc5vvZ5Pu+0PdWhupciuvk5+GXtPKRsPJ6nuTQ2eKowfXD0eJslOSuxfWGqfCYs+Pt7eGJqONNf+Ts7eGEpeNRguTI1OKet+OTr+NeiuStwePA0vhnkeTT3OJWheSjuuOOrON/oeOUsvKovuPh5eFah+Ta4eKxxOK7z/fc4uFjjuTY3+LM1uLe4+LW3uLg5OLt7uG5yeJxmepfgq6jAAA0oElEQVR42uzBgQAAAACAoP2pF6kCAAAAAAAAAAAAAAAAAAAAAAAAAAAAAAAAAAAAAAAAAAAAAAAAAAAAAAAAAAAAAAAAAAAAAAAAAAAAAGD24EAAAAAAAMj/tRFUVVVVVVVVVVVVVVVVVVVVVVVVVVVVVVVVVVVVVVXYubvdRIEwDuPzJgOYNh5xwA1wzJmJ3gCJRhJKARHjWg3Vpmpb9/4Pdjd7spvsRz+0DPD87uGfTDLPDAAAQCuEz/04GwdRFIyTYrDzFICfRsNN6fbkF46/TwYnBXTeqAos+SM/+BoqoMsOya2Wv9Krgomgs06zcU/+w08mCuiiY2DJK7jZowK6ZhBpeSV3PFNAh3jDpSNvYAXTGwV0Q7oo5a3s4DpVQPuFi62Wd3CWfa4P0XZecSvvpfcPIwW016G4kg/JKy5G0Fb3a1c+bHt3r4DWOU3WtpyFWzwpoF0OmSVn48cHBbRGetxoOSt7/ayAdphFjpydnX1RQON500AuQ2+OCmi09Hqv5WKcgEgLDRb2V3JZuhwQaaGZvCqXy9N7Ii000EvlyyfJH4i00Cxh8a95MBF02i625JNd8XodDfG0caUGbkykBfNNEkdqYs2JtGC2SWRLjexkpwBDpdNIS816AQUKzDQtHTGAZiIwj9cvxRR6OVWAQW4WZe2Hq98wEZhjVOVinO2QSAsmCOcGzuM7vboj0kLdXmJfjJUXFCio02Nm8Dx+8Of8pIW6TL6xd6+7SURRFIBnHwaKVK06xvGu1RrjDeOlpphYY4xEEJICYqGIQAOCIPXy/j+0/dFgOeBAGTh7z/reYcPMrHX2KTpkvFgDCx5gEdIpBuOxzyn+tADmK5MyIhX0JlzELTwwT5l4mFiJ7CJehznJbSy+cjVNSQvZIcxBomNG5WpydhYLHsBnbtOcytXk7N4GskPwT6teY/hwNcjewel18EmyVCABak1khzB7bUMrV1P4VMeCB5j1eMRIkAIWPMAMpXeZfrgazWng9DrMqnIVIYFieZS04Nhy2ynmH65Gi+KKETimTFbcw9UgO4WSFkzNXa6SdHZ8G9khTCN3yrBFDD6xsxmMCEwqUTH8rOAs9ZYRr8Mk3LqI0Ny7r2iggGetErPTHrNQQLwOniS3RIXm3q1hROC/ug3R33XHi21hRGCcbpzJIga/OHkseIBR0nJDc+/CRZS0QCctOzT3LpJCAwWGKlfyQ3PvluJooMCgTDBCc++i2b4FcMDtiDkrOEN2bxkNFNi/+wbjoWfvYEQCL1EPUOVqcrUmGihBliyv4d1jvEIJO1CCaq8cwMrV5AqI1wPpezGglavJrTUQrwdNW96eEj/F8ojXgyTN7faCxXN2sQMlKDIcby9YPCeF+xOCYL2Kh6spReLbFoiW63C+vWDxlrK/kR3KlaygcnVc0d4GskOZ3LrpnZJH5x8+ePDs6WUymr1TQXYoT7teI6PZV5/cVwdOfLtIRrN3msgOZUmWTa9crWyG1KH7r01fl12rIzuUI238eNDJl2pQ6IrxMX+h1LVAgnbe/EUMK8/VEW/N/xi9VkZ2yN7HdDFKxou+VUOekfmW8ji9zls/Zf4P8V+31bAT94gBJ4/T62y5mTixELmjND4TC3YK8TpLufUel1TwttIJGZ6HHIpmUdJiJ/G7R2xsKq33xIVdXUcDhRO3Yngq+I/wNaX1hMs/4EF2iJIWG60mp/EgunxaaT1eIU5quGKEBZfdnpKrSu/0SeKlgJKW8bpb5qeCR51VepceETcOFjwYrdXgNx6jByT0ivhxUNIy1peG6RW/yQZEvSOOIg0seDBRm+0ihpEDwiJL11gqoqRlmFyf8d03Ix+xeP6D7IviihGjbPdYVK5GuKH0TnOJ0nXsLEpahnAzzO++eRVSWve5feY9ooqSlgFyp9gvYjh5Rmnd4fpSdaiHktaCJSRc7rFyR2ldJ/5qlZwFi+KavojBo+tKa5MEsGsdlLQWo1Xi1ikZ5ZnSuksyFLZQ0pq/vYaU8SA6r7RukhRrZZS05qvLslMyykXeB6a8cPItC+bly66k8SBaDSmNEwy2TUzAKWJN0Hx8z/OsXI3xQmlcIWHCxT0L/JYoy/r3OPBZaXwgcRy8rvtto0ACPVQa50mgr+sW+McVerPgXaVxliQKl39Z4JO+jFzQY5/X8BXvU6viuIhPTslJPo64qYZdOkdCfepb4IOOzMerfZcvqSFnVkmqGF5EfNBk320dLabp816Q+3tA4WULZqzDvdQ+TuSWGvKcBFvFUZEZWxeYfgx4o4Y8IMlWf1gwQz9kz8cf9u60OWkoCgNw3nMDAUQ2oUqBomJL0SJItVUKRdRKtSN13/dtXMbl/39yXyHbzYWQ5D6fnYw6PU1O8t5zUKARZ+FrT+RXdYFevYa/rfg37K7nuCIJcws+94JGrMPn7iqSIHv8lWsdI+vn0yA6QrINEeSMbz8Q/pb2z9Q4697L0IkYV+F7RRrhxcG8Nr1RJAE++e74x6gajfD4UCwrbstR8CJcgv+NFgjzb9Lkj5eK5Ng7H0cuftui/6V8nKz5bZ88P+XcMwTAmAIJwIMl8ECRHDrj82/owS6Q93KonFN7EQSjBZIIwiMWNDkC3qnjCIIxTXoMQSA/pzv0Kggt+tgjhd7b4MnjviI5sgeBkKURRQSBKqfJyXdY5rQSjVhBIMj3WM74YP0H51STXAA+pQN4rkgOfAxECxJbozEeIghuyBe9TpxCAKjnaRy2GoTfDprcGC2DvMbCm4y+Cdqx9J/2KhK/K/C/g4x+CGTkHfcUidv+IOQtKvRTEA9NAY8UidsdBMAyfeX3JWz6NJno5fcSAVAlXRUEgNylLs9KGdomXcsIgKuKxGm/r6c1qLFaJTvonF8kXec6g91yLebnqauyCXHgk1/H/WQqg2FhMZdgZI4lcqVCp1r2bbr3kFwRzesNfCdW3N5sRxnZl28WOtkDPiyTiDwTwus6fCXe6iw1GDmRb7Z30kn4i8wr8vLPRF71QnZjLk9iJM5ttuo+6ktuKRKXj/5oQdTM+rCUIrGiS6u+6UpuK1Jgk4pqvboQpYlgzWPLvthjqMpNCAFNKoZrg5GGXCgWXahe8P7DlswrBnFeg5p5sZSnyYsuLHv9aJXMK3K56OXThJnlNqNpyT/09putK4rE4YNnnx3UYmeNpmtxpebZ/y4ckU0Ij6fwpni2RC5gJ9c9exuReUUez+FF9ZUcuYQtvvDoWy05Po7DNQ8mFbXyAiM3sc0D8CC50JPDJ3iNmi4xchtrH/ReM7JPjjbx/9Tq5HqJZsO5sudK5LEiuT5T8VAxu729XgthEtTWYZodkyqRcHF7o93ezNYi+EGumnLNtUcQKVQ5yei7owtFFYKF0w2aLaWKCtHqOyn66fAgjO9kXtEtH/dBoO4So99YoQuhin2aPYUahAqt5ugvi10IdF9ObnA1qVhO0D/yLzQIUztJM4kV6hAn8/+/MrEOccKfFMm9pGI5T/97m4QYsc2jNKuOno1BkHKT/pc6AHH2KJJrScV4jkYt1iFAcjtKs2xtNwwBwgM27uIaAJlXdMf+GxCmQ+Mcrvm0+fhXfwuOqTrTg3uQeUW3fNAgSiZPY0WLcCa+6f53QXNsZx+cCQ1pvMYhiHJEdumuzVTcJR2NGpxYnqUvH0YaLRVODElPEaJE7iiSS0nFt6Qn1wW3esELt48fWCEObpFVRnoGMq/okv2vIUyDdJUy3B/O18hLmi3wqjLSNYQwlxTJhscahDlK+vpJ8IgVyGsW5sElnSd9byHMjYuKZN1pTKdAqBCGfRWvdB9/W6uAQzlHBjYgjpyv6FZSsUlGzkdgU3jHO93H3/KbIdh1IUdGdvCNnK84fY8gzjEytKLClu458irb+an6HBlalnlFd7yKQZyq2XcCFdap6ynyrqNZ2DHfJEPsAsS5r0iWnVIhzoU8GeupsCrUyZNIqbm+yfnAwwkSiL3VbNTHIhnraxBn32dFcmWmYmSBjDHLT1mZcyQIO3xiNXswo6Fq/McqCHfL1U5hjZEY/a7l+jhMJtYhkHpakdyZqXiAkYmzqrULzZEIqUKvUj+EH15YespXY7VWZ46RANGKxfrok4lSCCI9UySLztyAUEMScg+pJsixxtvtAxr+cpYMVfGXTHm1nXJen72IkPtHvgahrsjJDVZ9iECoWJ/IcR+iOn67y/q94si+wR0ytD0y8Te9ESWHzodgpl4iM1mItU/OV3RtpmJmkUywYQSGkufJkaMPd+c5XkKfxSjtYO8cIyfacRjrNsjMqoqf5HxFS2YzqfhTvERmNpJmJ075Nc6vxzHeCTK0grHCB5zVSKnusNmKZlX8IvOKU3btNYRLbjAycT4JXd0ScWPtahy6Foj4whzawWGDEa9cGfrKUTKRq+Bfcr7iFD3eB/G0KiMT/Th0FA/zz8td3QpDX6RtUrUwcKhVSBGnaBY6IlXT+ljqYgJuX1MkjqSiKAcXyUTpgk59pLgPYrRCMBTuk6EFGFJrHd7aZdUIxlHPMjKWX9EwCSGZV3R3+7M2TJGxXBpjpBlxWdvYgplkkwy1VdMrVPuMeLAexog9JGNs6QAm5KkicSQVBTpoNnydDUL4XytPPBqr8zAXi5Khc2GYOtRaYsSBrYRG2/OTZKyxq+F/Mq84VTcPYXLSZj9LJy/gX8uMOMz1YrAiniJDzaS1lVZ8C9+GKv4R2s2b/HV6YUzOa0Wy4DImKbQ8R4YavQsqEJ4P4bvdFNkXHcRgzXzC5EoWLxTSqXwTnSS+qx+obdXKg3NkKNGJYZLCZxTJ/e3P4RdRs+XKc40ULc3z3j/WVmOwaouRoVTc+naSPtm3qQJIvkiQOfawDn1yvqKp2UwqjpM5z8jcWkvDcorsYhsxWFckY4kMLNN2m2TbRgjzBbJgrhKBHplXNDPDScWxKotkwTH79w9W2IIdFTLGurAhuZIguzqWVjfkVmKYvEeKxDVTUbzQTpQmoGl3LUeaTByELfO2lyQyRuaWapiGI7IJMfcS09E9yUiw6I4Km1pkogKbinMkWiOL6YicUqSZ2f6sDqIk1NIWbKuSiTTsCn9h706fGikCKIDPez05JsbJkIVsCASSrIQkQIVLtoRwBgRFibq6arm1XuWxq5Za/v9V3tQuV0/3TNIT7d9nvvAhkJl+/d5FwFjNVTAq7zmWzLcYmWKT8fH2Xajbp8Q61LWrjE930YWE7VccoftpjE7m64AxOVqBjvOhXEtK9QTjIZpFjNBjx5J4BSN1fMg4eKfQ06PEAbSUFxiHzhlGyrW3CmW+xGhl4vhj2yhD0w4llqEnvRTH73WMkOwe9N3GIal4C7flMRrRT0PXE0r09H8vnxHNFDBqXznWne7nMHK7DUbhD6BvmxJ70HZcZRRCIZho+xVH5W0Xo5fbpL6FMiI4pEQf+grPBLWJRRhw7zvHussnMCG/SV0zdURRpcR2tKMeQU3iIYyw/YqypKIROZ9aRC+NKDIlShxF3jfXcwEVNq84Ko9hxj51iDMXkdS7lKgimkqDOoI81Ng96JH4zoUZK9OUi7/8puJRYiGLaPLb1PAMhtyz1SZJSCpek12gskYNUZ34lFgtIKJ8X1DZJEz5ybESkFS8Zo+qFlYQWXuaElNFRJVZprIHUGT7Fe8wlklFhVitbEJaX01QIjhGZJkNqipDle1XHIE30zDlJNDvf9b3gDJ+G9G5Zz6VNAsw5fF9x7rNOzBn1qMCr4g4tCgjaohDjypm8jAm/dyxJJ2KZtQaVLBZHs0XOzGP6FIbHSq4yECZPSochR9gUrFEBd4gi8jOKLWOyIpqF9VPs9Bh+xWH7v17MMndVAzxVhDVwQheuLoDjyrEA2ix/YpD9zGMOhNU02ghonNKnSGayo5PNaUcTMraahNJp6IhRY+qgl4dkexQ6hRRuDolJ+cw6lXHSlRS8W/uGjUclRHFGqU2EEFhOaA6UYMOm1ccsl8fwRT9FRDv6zT0zVFqD/pOmtRylIIO2684XN9lYE6uQU3bRehyZyjVh67sZEBNpzAoZ48Kb/YZDDqlttI6NKWPKLUGTbk+tXl5mJO1U2w3ewvmrHQYwU4OWgoNSs240OHOdxnBkgtlNq94k/9EUhHuDCOp1qAj51FqMw0N6Y1pRuHXoM7mFYfqjTSMmWVE/oELdfmAUo0C1LUPGVHDhTGvOVayjgmzVUa2WYGyok8pL6fR1RAwshbMedOxEnVMuMgYBA9dKNoVw7gdXpljDLo5aLFTbFeNbafipdQW4yB26lBTo5xfhJoHW4zFAdTZvOLw3K/DlK8Zk9VZjftSsY6wobDDmPg5qLF5xZuMd6fiX3JTjIs4LSgPsMU6wlY+5HVjVo0F3PvGsZLzCLLPGB0eI7z1mPsT0meC8ekcw5R3HCsxScW6xzh1Bi7CmmQIEwgr3+QdxinVa/OK1z1CeMn9B6J2o/uAITxEOJmHAeM1vQJDfnCsK35xYUbeY9y6Ycegz2PscEs/EYzbEgxJOVbE6bUkpBRvJc4zCKMXX7K23OU//hNPIT861ss+ghmFKQ5DdTe2OsflUNVwHodhA4rsFNuwfA4zFilXElTmT2Yg1WcIPUgdb1Jd1U9wybvNK17xZgpGZI4o1Sk+9KluJqc2wKZ/pVBrZbGZ20vwzanHHzrWi16HGROCUqea3/C3WpA4imOJINcXVLeURX6LUo0cjEjbKTYD6896VVilFIDjLaoTstKTKkOYwZ3mS9RwkQLQEpRahxnfO1YCkoptEWasT3/GsFqWD7BFGmErnAutZSz8Kd2k1CHU2D3ooXi/DiP2KLXt4i+FOWqYPsjiVjWfErKNqXJVUF3QcvGXeUEZMQs1Nq84DE9hRHFKoYiz0KcG0cxLut31J3TSkx1q8GZVaod2YETGVpskYHptkVL9LC4tC2porEc6SKeYwM3ya4Iauie4NBtQxq9AiZ1iuzT2ScVsiTL+8Ys/vzhNDWIpj5u4VTLCe96JKcrIl7GWEvum91PHuvThI5gwK1TfsbYC6liYxw3mBUMJcrgu1Quo46iCF1UEZRpZqLH9irF7noUJF5Txy3jZ/BR1dDYKuCp1xJB2XFxVW6CWtZR6ffZvMCFnS95NHxPWG5R55uKK3S61bK7gig3BkMQAL3P3PWpZTuGKcocyPZjgPnUss9Nr61r3wVcOqcUbZPCiRcHQgpcvYe3OUYvYcHHNM8psFWHCZ45loFNRae9gDjcoblKLWGvjUr0nqMDv5fCv4sYqtXiTuMGJSGhFlj0qvHQ/AwOKnuYYWe6ZoJapXtvFn+qDEhWV9ttZAO7JwSr1BBO6EwxrMOGRYxntVBxQppnCjdLL1NRpXuwfnM91BdUFCzP9mWqHmhoPtPOaU3mosP2KfxvzQhN3Tv+yq7sRcMyU2riFPJElJqHGTrH9YdyTiiseJUp53GpScKxsFqPkCeayCM0+hPxj3DsVB9Huuq5vcYxs53G7yhYlghUY8O2vjvWnpy4MWKNEp4271LocF2IpG7FcZQADUrZf8W/fw4D8VNRpp/YCx4PYS+FOtYASfRjgfuxYxqbXJkTkt//5TY4D/yCLu7lNSnQLMOALxzLWqbhHia0cZAprTL5g4EaP/YsJhGfzivF67mL03GocF4UK/cS/zPIeQK7iU2IZimy/4nh3Kh4LSswjjPOEf0JWTxDGE0osFGDAz45l6JjwjBJTBYThLk4zwUq7CKVFCdFGaDavGK8fYMBabBnvQYeJ1SwinPq0PFWgwE6xOWPeqZiTJf7EPMIqTzGh5lIIq5/IF72PbL+ioaTirIhxnby8ykTaScV4N2YhjdHL2H5Fx/kEBhzEWnaTLzF5xL6L8IqB/PKxGrsHPc5JxTlKTEBF/ohJI1oxZ5vPoMZOscXjw3sYPVf6CFKEkvQTJkswCTVniVyb+tz533sKA6RlN00oSp8zSbwaFJ1QogQDXNuv+D0MaA2hLO0gQUeGpV2ocru823QdBti84gcw4IJ3EzWoayXmE1IqDqMkbAIGfOL8z73/GAY0ZQGNOjTMJ+TIcDsFDROJjGO96/zPPc9g9Ord4dR4zHpMgLUCdFT8JHab/M7evXYnTsRhAOf5TwIJjdwKCKXcl0Jpq6VgUXqDFmy12uqqu8e1uqv1tupRj9//hcf1eN3dMEkmzJTk9wHavmAaMvPM878X9H7FFUhQKJK9W7izJv9AhF3BneiA7LViWDzj3Uiw3YcEHZqjBpesMsnFxgZc2lbyYnrQ84rfQoI+2StacKteIplS13DtWslLU+9EAu2tKCSokL28Bte0p4ykMZtwb0Zz3EKCeCTQHkKGMtk7hgfRMcny+hE8iKWUHMYW7GqTryGB1vW35OaWkRT5I3gyInsjOBDmFe/u6LUpI3vr8OaAZNid+fxqtg8nwryiAG/dgwRpslfMwBu9Qotn1vyel1LUIcGjSIDJ6VQ8J3v7UXiUbNHCncCrwvwnqwSrP0eC63vIcEX2BoKKf/ntZp83TpAT+SS8sub9xj3I8F4kuO5Dhh7Zu4RnsTzZ4DthOGHkwCU80xtCH1Jhv6J3jyHD6QIKPC7Jgb6GF4hWiB+rLiDDeQVe4VGhEN9okEDLk70mFvsdq6J7v8jbXVvAqq5Ahnhwq03egAzJHNnbFFObwmtSx0tMTeLV0BfQpjeBFD9FguoDyGAVyRaz4F2BEaeczXrcM4lTPgrvqmSvZcCRMK/o0SPIsMPIVtdY5BOk24GNW+JkWvBuxlnHyi8cxXbnOhXn/5/chQBt4tQXM2ChuA7vMoxsJSzI8CCozQ0PIcU12StBgDPicxaDrWR5YeeEgJGaGzGQIRbUl5AnkOKCI8vrlZ4jLqcW5tjk/EmNGLzbJ1usACfCvOJdHL0GjP0/ckOfuDQ2MVc6QVzG8G6g5FE6Po0E0of3IMWh/5+0mUk8ik1w4DxRz+3Asy0VZyAEdhTbu3DjLnwK4hPO++MaOOg94tKw4NWhiv28QCyYb+nfQ46e398jpmXiUomCS71FXPIFeLQt+uEa9it68Ank6PnbIJjsdInLqQ5ORyZxYVtTTfnXs7BfUenRawAqfi6QeH+XOBXALUucWKkQg3tZ0Rt8YV7Rve9WIUfJr6xidNY+ZcQtDW5j4mf2hhkN7nRUHIEA4EEQ+xVXIMmI7FXhRnK41WB+XQGskCNscrkZgwtDsncDObQg9it+AElGwi+WRqfXgyI5VdKcdwnzM3t7lgaH0irW8wY1r/g5JNkQu0Bi1a0WIxfMuKtoML/E5GRTW44FEsB50A46FdVdIMZOp5Qgt2rglCXXcltNawkWSABHsT2EEyq+g0Rrx60EeXDBf7TpRXdwPtXu+ALRgtev+AS8VFwgsUy71yWPbsDHMMkj1ni6V9fu8ALBK5GgeQdOKLXNq21elovknWmAyxEjAbobt0ca7KUV3cUKYF7x1cdwQpmDQi2TraRIkBlv46EgbPfpMOllm/cMjoWj2Nz5IgZuyiwQo3p42iVxrnkjhAKZG+dTvMyeogeFwOqvkWD5DNL0yF4HL6LFO09zJNYheBgjEovlD5pJvEhWyWKsQPYr3oc0W843l7T1/qBLwp1GwcEySThmls538JxzFQfdBjOv+BjSHDqLgGj14dY++SKxBg5V8gebXFWj+I++onF3AK9FAuUHDdKMHXzx0TbHI5N80+T7e33DcpX2mvoXpv6w+mEkSFYgzwXvpLFM53iXkZ/64FAhXxXLV2kLfzpQ88rtM8HKK34AebJc0w+Ozkv7jHxWwnzJPPmN7fayFs8ZahryfB0JktcgT5Xs5RAfHuYZLUCjzplU9B8bXFbr82p/ZnAozCu6881HkGc6rz+wlGO0GGyd/4HnP9YoKlkc96dHQWpueKhBHitByqhswp5WG5AyEnHIo/8SCY4nkChpkjrMrYKGl9KrvRSpY1+HRL9FguMdSBTLk0q6ZzUNL2Q0S4xU0tLgXJhXdO7jbyHThNSSqlQNPCeaHqm1PFxNNw3zim78EoVfFDhYcKFYacbwH8beQLXlQXQGme4Fp9rke0h1RQoqD6P4W/26RQo6hExGcPKK9yHVmFTEBkMdz+hZJZcH0S1cCPOKjn38I6RKk6Je30sCmezrpKg0XAn7FR36YRUSGYVjUtb+9XaOlHXanmmQ58HbkWBYgTTJ9KGy/5/vArbbz8CxsF/RmU8hi1aikEc9DY6F/Yp3JKnYptB8yl4KCUhe8dWPIMlQvaOFOyhRhSSPIoHw0IAcVZVyTXdYagg5Vn+OBMETSKFdh+tDEHaSgRNhv6LqSUUtvr69SyFhWHm7FtfAK8wrKlxoEtvpHJ+a4duHcKnWVrvAN8wqzCs68JaBhYjWM7X0Sa+h0PWoJcS6pzf9vfUdS9dgI6w24fcmfGTo8Z1ZYdg/Lk3y3SIjWRLlUe+sN2HkPza6SKc7FwcbXUbSsESuNdg67N/uNWubR89/+QqrTSQnFZPT4XalZaYSRZKLma3KdnNHwzPxdoP8ldtO/tOrXRtvTXIKfJlkqVYvO9PxtzCvKHX683Q82lfgY1Hcr5w3d+IG/i16wshHowz+R89U2zdlBTbsmFnKJvGXsF+R18+rEErfmzCSi6XypfP0NIoXaqbINyP9pbPh1tsHE+lbE90DC0I9WP6XkBUNIk03GEnEzNHlcBaPwUaWkU8GFuxo9Z3mWPIuxf4QIulfRJbdpxCpkyBJEruDfmczjvmMK/IHq4GHflS9OGulGEnBLjU8E/Yr8nkfArUZLR4zK9udmhWVXsR1pjk5Kj1Knx9IeZr0AYR5RW73IE6a0UKx3Olxe9352dgx+WIdjtU3h+elxmL3v9keEOYVef2kQRgrTwuTGhy2q2tJTaE7vt043IlZheHJzeI2/sw1CGMsewHpE4hzSAvAzPLZbXPHgAdrRfJBGd5YhU5/43VG/ruCOCuR5fYVhFlLkL8S+ePb9DRuwKt4inywAQF0q9bZHvm8H5yoQ5gvI0vtw8fgJL323KzqEKTepT+ouED+FNsgX3UgzOeRpfauDmHOyF9DQOk++bIGUWYp8tUlEPYrLnr6c2xA/rqBKAXyg2kBd6RKrwJhYsvdr/gJhEk2XGROnRyX5TIQ5JZ80YQg+oR45cqDsvM8ZEmDMB9Eltnv7N37UxtVFAfwfM/d3TwmJiQlkbwISUugeZgHCEp4NCmUaCtoUeuD0Spqxepox/9/xqmdtpRH9uzu3fawyefnTn+AXG7OPed+79N3tkBUtXGS2tsqrpSI6w40KdA5wqJy2f2k6igPGOm5pUZJOd1BpvOKDO/fgDaRGnGpbONwL4kXksuLRKq+aD/Ela1Ai3iGfJExoYVxTDZUv7+6lqvfT+Mlc2+2y++kNKDPUSjAHkGjbe7qaJ47j4otjcr5iDl8W2X6Mp0l73Boa4ZsZE0YlbkFvCmeanQUccxCHyPI0SafQ6Me2VODnQXTdWU6Dx2sDfLJhgUdVtx3+iqpflWRHbULANN8xbecqZjskI32ZtHAlW7XyUZ0DhosKPKJWoAGsQ7ZUGVcLd47jtJ4XUznFVm+PIJOh+Njlhs3MZZRIzvb0KBBvmlAg5EiGyUTY5mHhXFrpL0FYDqvyPCrBZ2ShTFJBocxDaev9bTULuELiTg8M0pkpwk7xl5zka6gZgFg2ipkeAS9Klm6jFo72AVDK/c2WsD7dBk5QdI9spObA4PVq6nLYxihV/hJKKgeQ7P8kC7KjmJgCXfJTjsNj6wB+WiQfAsDCathsFjFRpTOy+1Dt+D20h9Ct/BK/dyZbr9o6Dx/bcKjm4ouEtRNX1c6D2nN2UKGzlCFLbwyvXb7LlJ5W9ud15eamgsmHDCjZKcehzfHdAk5A2PGkOyoNJxI3twsvBifV+3t2xG8Nk3ofTcv5xjF/YN+f3NUDMOppu9byFaU2NTi9mh9/c7dNvFFW75vIF04Zuymer2beQO+eBgKqs8gzFyO7GRa8GKH2AblCP5nLVffViSCydhAyhAmuI0QcQskfOxzryFWJab6Pl5LHhBXO+7zm3TDMIT5ORRU4hYI1smW2oN7PUU8ahlnGU1FTD24F86SrRNIE9wd5ANIY7XJ1rwBtyIF4lH7eFPklJgKvk5h0Uwc0gS3BvkZ4uyTn1/CFxLEM4zgnEqHeBK34VZ8jZNIIk5wr0x9C3HSUbJVNX2eyKfEHC7YnSGeTT+nxNRtiPN7KKh+hzwrZG8H7qTXiKePS/SJwcvAWDHH+n4pTnBf0flU4E87r8hWZheujDzdfs/P+DuQFR7SNTzjBcxfQ0F17wbkafh2pzoyJJ773nooqxG4sc/7r8UJ8hshv0GePUX2lv0cw6rGcKnKIrHkUnAhXmeNeskT5NSGTyCPUWB9hn0cwzrx+hWtDxc2yN6iBXmCe4j1PDdOoD3lT7chPuM1ITGySiyJtE/1UQryGEF+ZOpjiX+RcOzPZ+WO91b4uiKWO760QChrQp4glyASh00A3FZkb60FZ25kiaUQwZUi88Tg4pNsbFzXDSTAgybPPYZEDWKoGY4HyTlyRQ2JKGrZjyHjgcT9PvxhKMj+uQWBWsqHwfJ5HcEkkT6xbMCR3QTZUxKPsPDdl6FA+woSbfPmQbR9Bvk9yFaGGBxGsyUXiaEmbs79ucehYPtb4rbNnAnpxMF3oOm+047+V86MLjGoOQh0K+hvFIpshXBPnFYtcKU7xFFNw0a8TRydCthmFTGcCpwLCvJ99Jc+lThuArNDDKoJriViGel6C14taY5CTeQh0FFw57CEVyHMM6d/wbRKHKUYbIUHxDEEUzrLnA+TKOgVyHP3jiCQNU8cmTmwzCliUOv61q4qas2aryYh0NNnoQnwkcjTkV1FHJ00OE6Jo2CCwSoQx11wWH1iLl2BYo9Ck+CZwJu3AJrEslqBvUqU90dfZ9GQiYHhRBFHTWKFbgR5TPGsP3+EQLEssdyN6DoU60a0Png9gq6Kn2a2INAHwY11P+dRDAJxJwM3LdgwssQQ3QLTXpQYshHYKSa43RmBvv4jNDG+l7iDo68rzHCdOJq68xnXdeWgLkqc4o39FZoc7/8EgdJtYlEjQ8MYVj2uZzidH7Cwu0Ysqgh5jCA/TXjRF/Iy5AD0iEedYJxWnRiW4MAsMcy0tKx/2oQ8RvBb6G96IrFQN+aJJ9czvJ6HtZNwoFL1/KUtnyWejsQWyGeBn8E67weJIyfsrGk18jq2su7DCULGwJXiQ+LJSZxyP5qgAv2l9yT2C9nvQamr95AUMQzCcKZGDL3x+8e1nTG5EdysuDE+h0AHxKT2Ga9LawxkKyqyt2rgcukBMZUEnmBFPgpNJImFulkidqVuuR/D6hpwqkvun2rYahNTTmAW7wTMuF/uV4mFej5HXPcNtxfcE3twLJ1wfYF3LkNMahbyBDkp7hreDTlUxHVaYT0MetGmX8NiCRMXpTLENS8wavTon9DEek9gR924S2wbMVcdi2gcLsQzZG8f54VPFHFlBZ7w3ghyUNx1fDEEyUViG7TwJqPEynlz5YTsDS3A7WNulBB4Dd14LzTJnkm8op7vEFv7Jt5QVmSrY8IVK+N8TCR2TGxqBHl+Ck02kYX6siI2tWTgjALZm4VLKUW2jnFWfpH4+pDnk4DHYNl7IjEHqEl8qpvEK/Ec2RoYcMmqkS1VwStGaob4BgI7t0cTcwXkag8ErhCjQQ6U8o5uSi3AtaJyNJC1kiC+TAvimBNdoEvO603WyIGZE7xgdchWDR50HVQ46VVyILoAcQKew3utO+qtLDmgGiaeKzP+6RbY3D19W8b/Uh1yQmKBPqkd9PPuiXyZrU5OZMvMicKG70H0qwCQPFDkgNoR2JGa3A76eX8IHJBDKkpOqB2TEx2USMOTCmMLyQNzWXLkVGCB/uMEpChyPRD4+8GyIkeyxW33PUKdmaaN5LYiR2oCO+ixP0NTskff7yhyJJcjO+0YPEp2yE60RM7U4hAnMi3QxYe+Gzuk2yw8WybdFiXmVE9KSNy1LtStA9JrYMK7LOmVlbg+vpqIFF4n/pD4OFt4W5FGqgwNFhKkU2YP8vw2cRkN9h5JPMqqnJJH+hNvjQJp1BY4wTvhI+5X+UXgUTysBmmjtqDFbo7Guu4NdFiTkeIeiEJd5x5yDE0apMuayBDFaYF+uXtPIZClqw6ZaUGT9BrpEZX4/QqfhKYu90RioQ7zQJEOO9BmhbSoilwfT++Fpq7wQGKKAyI7irxbS0Ibs0MarEk8v8KtaQd9jG8gUeREkWf70OhQkWclif0P3Jh20MeS+TwblurkUTYMjcxhMPvnwDehqXHeF1moA8UZ8kT1oFWKPCoInE8E8DA0Nd7fIl+JBhaq5EW0aEGnfJs86cpcH99NO+i2Hoh8wBCIDcmT6P1yElqYcydDRV7kdiTeLwBuTTvoDI8ldtQBxLrkjao2ei14FFtvlhR5o5Zk/oitB6EphoeQyVhR5Flnc71lwRUrXV4Z5sizThkiRR6Hpji++AxC/cfevX8lEQVxAN+ZuyBwaAF1DTQtlIcghFhRSZCKdXocNbN39n5alqf//5fyVebeLbG9e2dpPn/BHj2r97szd2Ymih4Q0/ViOmZCNxLpwakhC72wQPPzFcDr/35I3FF9IhrUAVp59IhoTM2lSvEQ/JkZil9LvWmPW+gR0aEZzwGecQU94BX1beGOQO+ITGO+frWYSpeqA31wQCQ7fC2dKs515muWQA9ZFBeA7Fj7YLAjewtUmSsWqiCsZDlaq9WmpxvRZNISqMQoye6rbQMc0Ltyl+Z3lm2lPAYV0ergNg7o3TlJcdzinkRbYBDZZI9XYHIFvVtbD4CuSRuDh+7xCmCJp7h37RbFO+r74nUMmMwywfWD+2JfDda1S4R/oxBZqWGQDKXphjoYuGWw7q1SXGD4S/9IcJJIcpluOgcwnxrsWMhW1HdNNjAY8hRHl/xyd9Vgx/KV4gLDA7LngvBPJDpH+awKsMTvR28G9W2lBaSuTrX1ak/uk8GO7QThaLljEom7TfwnGPpisH/wCkgz55G4AtD20WD/4h7JcYs/pZE6QXK2D68h9MwnyhV1aCJ554Cws3wH/Z9t0bw+vaM/AC0n4wTXR+3L8RpCD1yg+4acRvoE3SIIV9B7eIHhjuwQkjcaBqLMSwbzBN3W9wqSRzeDcAXdK+8oLjDcMYPkkT1hnTWYV7aoHhNKSF4VaHrBLe4eukC052QRySPaacJrCI3/IaiX0EVySKCfRMCOWGGuoHtrlWZFvYguOqGJKRv9YrcnNtz3klDEFXSvvaNYUQ+dRzmrBACxmXoDlRPT6zMxExYtlBuleFfqJlfQPbdFcJjcaYFyTdg1PLluo0rlzmQcdtxGOTEB5DzgIYp7ejuoR8ZQLjoM+8z4TFtRHsnkmxf7I39texkDanLc4n5Q7y4wPCNQKlqE3yROXZ1NoreSs3OHdvIUx4X8aajtQo/wGsLf9eoCw0gdJcpTpyLgFJq4UogKj+ZeF26fDkue5/RGEiXqxK7cvjKYGu+eACWnBDrlr4Gr4YmrY9MC/4Wo1ecm4uDCPDWKThla/0KWDKbKJqWgHhpBp3wM/qL/YmUsXxbYLRHNd86l4vBn2Xl0GqF07fYFD1E8pFeD+ow49v29SGJxpbJeiFp4FFa00Lk6Wc2acAQt2VNdBDKyWwb7XY8G9fACOt2GriTSqWJlef386NB0NJnJiH0ZK2mP50cLneVzg6lSCLpxG52GyPSyhbjFXa1vZIL6G3RqZOF4zHAiFo/3D1dbrcXqcDwejyXCJhzLsE25nH7HYGpdJtL6Xm2gE4n9Am10ahBpWbzJawiV+5ADCqbQqUYiIcUsdJoCCt5zQHfXWwsMpZ94bwAJFXQSKdAvx3fQffFI/1fLxDw6JWNAQiuJTuf19yz28RpCdz1WUa+gxDrQYM6iRAV0e2Qwf5xcAr1aUZQgs+IshRJC9+O95hZ332zmQCdzBCXG9Z/89kRslChEQKcnHND/oneC+qBAiWUgo4IyRdAoxxV0X70EfWI2SogSkLGYQYloP2gTOmEwX90FbWZRZpTMCeuHAsoUwtANDuhBpi+ovwnAcIRBlBHanvE+D1H03fMcaDFso4wg0syxK5RBGbEIWjzjKe4afAmDBqEFlFoAUsZQKp8FDXIfDKbBWxP810a5q0DKDP5ApCdr4KHBdLj3CnzmPqfBInXCAsjaiEijJ8t8aTA9Vn0P6gN5lBsBYtZRbjwGPrvPFXRtPqyBv9rogtCl1l0T6KID/nrC70dXAh3UryVRztbfK3uIWUZEAgXN3KbBNPrYBz6apfJn+Qg6iKi/XNjHQxSPI6AV9ZJAFytAzgqJrZ5vDabXybPgmxF0kcwCOfEoupgF39w3mG6bD8AnLQtdnAeCzqObEvhkiae4E3ArBP5o4jaat/VcB2TpvPqY+2QwAj5GwA8JG10IWsNv95xCN/YA/BFX0HvL6mPwwxl0YxMbn76rr6E3ppu8hpAMX4L6GwzQR95tTdT60e0uD4kj46sfQX0D3VCYOdXNgjhsgnqf+f0gZDMMytXRxTiJgYpO4SGNKX3tq8EIuRQG1cbQxRUgqqLvBQlzBZ2YO6DaBsqVq0BUfwbllkGxvqcGI0Z5UC8SuoN0RE1dvcePDUbN9TVwpfKuVPIMkNWKooyoglpL3OJOkOoFhokaymxQGvdzWFPLhKIcz2gg6VIfKNVGCZtsAnHvWFwBpQY4oBP1GJSKlamPw3KatNBhKAQqmTxEkayboIx8r61oUj5gbZvDw6w0KPXKYFRdfgEqmRuOggKZ9bFuzGWBvxGDoNQzHqJI2HPFp4e2wAPK5/qAvpUyHhAdBKXWeMsBaRdCoNRkA3+aJ/yB96B4M4P7RqqgVIjXEBL3CNRKDC4kBaKYHpuAwIjPFWqWZY82F0GtMLe4U7d6ExQzY60z6X5yc36+s3cvu2lDQRjHZyRugnblBetKXrNDghdAIgKJEMLFCEMQAdSGhPD+i0pVVVVpMDfb9Tnn/3sHS/48429OyJe/fMvpEQR0h7TWiv+kK8i+71m4o+6kOR0NRqhn9P8M2/kEdENMFOkrVQSGaCvOxIq7i6ozRcqWTAgNEvqKEwjoLusQ1FPlEdANs1Ckp9AQmGWwVKQl1xOYptlVpGRJSZyB3gjqKQlocTcSQT0dXigw0liRPI8JuqmqfUXixgJTMVFP3pKSOIMR1JO2ZsPEaAT1ZJUJ6IZbZfI8mi1yHYHZ3gnqycmtBKZjop6cNiVxFtg/KBIRsOJuhV3m+0HN5G0EVphmvWHaSAUCujWeFLEjoNvjnqAeu6XAHq8E9ZgFTNCtEppwqMAg/l5glQZPSIxKI4FlCOpM0BGFoB6bRyboFnoeKmIRvAss9MLqeyz8V4GVtqy+xyDPBN1arL7fLjcVWKumuFFfYC+C+q1mdDRY7Y6gfhOfX0AsV+HnkBsUmaBbr6e4VomAbr8BQZ2AjgitteIqPwQuePEUVxiy4u6IA0/IFTwCujMmCiboOK6tuNCTwB0E9UvVmBA6ZcddhIvMOUPomDpB/QI+Ad05Y+oWz1bcClxTJagT0BGhxQHDM9VYcXfShqB+ljUTdEfVKZM7Q2EncNRYcUqeCbq7mkvFCROBu6qBIlJ7IHBYyF2ESAEB3XEjWhwieAR0502pWzwqR4kiZMLOCR0NoJD0cmMBRKo8IZ8pLgT4pc9InStSiNAgqX/gkc/BPOSoWSjAX5qPfMz6o9Bnfo6PKpxG+C24E+AfzVVZoQ8HAT7V6jlf5eBPmwIc09zOHP6gVajx7QqnhOO5k3m9MJtSfoWzPNd7XT/vzGNS9IbtxYhXK1xisH8b1Q+Nk77G71CJX/2YzijctO4FAAD8ZA8OBAAAAACA/F8bQVVVVVVVVVVVVVVVVVVVVVVVVVVVVVVVVVVVVVVVVVVVVVVVVVVVVVVVVVVVVVVVVVVVVVVVVVVVVVVV2oNDAgAAAABB/1/7wQwAAAAAAAAAAAAAAAAAAAAAAAAAAAAAAAAAAAAAAPAF5XhOAtqEeI0AAAAASUVORK5CYII=;" vertex="1" parent="1">
          <mxGeometry x="1545" y="1979" width="329" height="329" as="geometry" />
        </mxCell>
        <mxCell id="ReHwsoFXrBNR-BmlqAqF-38" value="" style="shape=image;verticalLabelPosition=bottom;labelBackgroundColor=default;verticalAlign=top;aspect=fixed;imageAspect=0;image=data:image/png,iVBORw0KGgoAAAANSUhEUgAAAyAAAAMgCAMAAADsrvZaAAABXFBMVEXu7uEybOX////9/v8zbeU8c+Y6ceY3cOY1bub09/5Feue6yuJJfOi3x+L6/P9Aduf4+v93nu5Mf+lBduWKq/Hx9f7k7Pzq6+Fij+v7/f9QgenK2flqlO3e5/vG1vhvmO1mkuxCeOfo7v1zm+5JfOXh6fzS3/qOrvGDpvBfjOv2+f65zfelvvRThOlymeTs8v3q8P3D1Ph/o++hvPTW4fq+zeLu8/57oO+0xuLn6eHO3Pm1yvarw/VZiOqxx/aeufOat/Pc5vvZ5Pu+0PdWhupciuvk5+GXtPKRsPJ6nuTQ2eKowfXD0eJslOSuxfWGqfCYs+Pt7eGJqONNf+Ts7eGEpeNRguTI1OKet+OTr+NeiuStwePA0vhnkeTT3OJWheSjuuOOrON/oeOUsvKovuPh5eFah+Ta4eKxxOK7z/fc4uFjjuTY3+LM1uLe4+LW3uLg5OLt7uG5yeJxmepfgq6jAAA0oElEQVR42uzBgQAAAACAoP2pF6kCAAAAAAAAAAAAAAAAAAAAAAAAAAAAAAAAAAAAAAAAAAAAAAAAAAAAAAAAAAAAAAAAAAAAAAAAAAAAAGD24EAAAAAAAMj/tRFUVVVVVVVVVVVVVVVVVVVVVVVVVVVVVVVVVVVVVVXYubvdRIEwDuPzJgOYNh5xwA1wzJmJ3gCJRhJKARHjWg3Vpmpb9/4Pdjd7spvsRz+0DPD87uGfTDLPDAAAQCuEz/04GwdRFIyTYrDzFICfRsNN6fbkF46/TwYnBXTeqAos+SM/+BoqoMsOya2Wv9Krgomgs06zcU/+w08mCuiiY2DJK7jZowK6ZhBpeSV3PFNAh3jDpSNvYAXTGwV0Q7oo5a3s4DpVQPuFi62Wd3CWfa4P0XZecSvvpfcPIwW016G4kg/JKy5G0Fb3a1c+bHt3r4DWOU3WtpyFWzwpoF0OmSVn48cHBbRGetxoOSt7/ayAdphFjpydnX1RQON500AuQ2+OCmi09Hqv5WKcgEgLDRb2V3JZuhwQaaGZvCqXy9N7Ii000EvlyyfJH4i00Cxh8a95MBF02i625JNd8XodDfG0caUGbkykBfNNEkdqYs2JtGC2SWRLjexkpwBDpdNIS816AQUKzDQtHTGAZiIwj9cvxRR6OVWAQW4WZe2Hq98wEZhjVOVinO2QSAsmCOcGzuM7vboj0kLdXmJfjJUXFCio02Nm8Dx+8Of8pIW6TL6xd6+7SURRFIBnHwaKVK06xvGu1RrjDeOlpphYY4xEEJICYqGIQAOCIPXy/j+0/dFgOeBAGTh7z/reYcPMrHX2KTpkvFgDCx5gEdIpBuOxzyn+tADmK5MyIhX0JlzELTwwT5l4mFiJ7CJehznJbSy+cjVNSQvZIcxBomNG5WpydhYLHsBnbtOcytXk7N4GskPwT6teY/hwNcjewel18EmyVCABak1khzB7bUMrV1P4VMeCB5j1eMRIkAIWPMAMpXeZfrgazWng9DrMqnIVIYFieZS04Nhy2ynmH65Gi+KKETimTFbcw9UgO4WSFkzNXa6SdHZ8G9khTCN3yrBFDD6xsxmMCEwqUTH8rOAs9ZYRr8Mk3LqI0Ny7r2iggGetErPTHrNQQLwOniS3RIXm3q1hROC/ug3R33XHi21hRGCcbpzJIga/OHkseIBR0nJDc+/CRZS0QCctOzT3LpJCAwWGKlfyQ3PvluJooMCgTDBCc++i2b4FcMDtiDkrOEN2bxkNFNi/+wbjoWfvYEQCL1EPUOVqcrUmGihBliyv4d1jvEIJO1CCaq8cwMrV5AqI1wPpezGglavJrTUQrwdNW96eEj/F8ojXgyTN7faCxXN2sQMlKDIcby9YPCeF+xOCYL2Kh6spReLbFoiW63C+vWDxlrK/kR3KlaygcnVc0d4GskOZ3LrpnZJH5x8+ePDs6WUymr1TQXYoT7teI6PZV5/cVwdOfLtIRrN3msgOZUmWTa9crWyG1KH7r01fl12rIzuUI238eNDJl2pQ6IrxMX+h1LVAgnbe/EUMK8/VEW/N/xi9VkZ2yN7HdDFKxou+VUOekfmW8ji9zls/Zf4P8V+31bAT94gBJ4/T62y5mTixELmjND4TC3YK8TpLufUel1TwttIJGZ6HHIpmUdJiJ/G7R2xsKq33xIVdXUcDhRO3Yngq+I/wNaX1hMs/4EF2iJIWG60mp/EgunxaaT1eIU5quGKEBZfdnpKrSu/0SeKlgJKW8bpb5qeCR51VepceETcOFjwYrdXgNx6jByT0ivhxUNIy1peG6RW/yQZEvSOOIg0seDBRm+0ihpEDwiJL11gqoqRlmFyf8d03Ix+xeP6D7IviihGjbPdYVK5GuKH0TnOJ0nXsLEpahnAzzO++eRVSWve5feY9ooqSlgFyp9gvYjh5Rmnd4fpSdaiHktaCJSRc7rFyR2ldJ/5qlZwFi+KavojBo+tKa5MEsGsdlLQWo1Xi1ikZ5ZnSuksyFLZQ0pq/vYaU8SA6r7RukhRrZZS05qvLslMyykXeB6a8cPItC+bly66k8SBaDSmNEwy2TUzAKWJN0Hx8z/OsXI3xQmlcIWHCxT0L/JYoy/r3OPBZaXwgcRy8rvtto0ACPVQa50mgr+sW+McVerPgXaVxliQKl39Z4JO+jFzQY5/X8BXvU6viuIhPTslJPo64qYZdOkdCfepb4IOOzMerfZcvqSFnVkmqGF5EfNBk320dLabp816Q+3tA4WULZqzDvdQ+TuSWGvKcBFvFUZEZWxeYfgx4o4Y8IMlWf1gwQz9kz8cf9u60OWkoCgNw3nMDAUQ2oUqBomJL0SJItVUKRdRKtSN13/dtXMbl/39yXyHbzYWQ5D6fnYw6PU1O8t5zUKARZ+FrT+RXdYFevYa/rfg37K7nuCIJcws+94JGrMPn7iqSIHv8lWsdI+vn0yA6QrINEeSMbz8Q/pb2z9Q4697L0IkYV+F7RRrhxcG8Nr1RJAE++e74x6gajfD4UCwrbstR8CJcgv+NFgjzb9Lkj5eK5Ng7H0cuftui/6V8nKz5bZ88P+XcMwTAmAIJwIMl8ECRHDrj82/owS6Q93KonFN7EQSjBZIIwiMWNDkC3qnjCIIxTXoMQSA/pzv0Kggt+tgjhd7b4MnjviI5sgeBkKURRQSBKqfJyXdY5rQSjVhBIMj3WM74YP0H51STXAA+pQN4rkgOfAxECxJbozEeIghuyBe9TpxCAKjnaRy2GoTfDprcGC2DvMbCm4y+Cdqx9J/2KhK/K/C/g4x+CGTkHfcUidv+IOQtKvRTEA9NAY8UidsdBMAyfeX3JWz6NJno5fcSAVAlXRUEgNylLs9KGdomXcsIgKuKxGm/r6c1qLFaJTvonF8kXec6g91yLebnqauyCXHgk1/H/WQqg2FhMZdgZI4lcqVCp1r2bbr3kFwRzesNfCdW3N5sRxnZl28WOtkDPiyTiDwTwus6fCXe6iw1GDmRb7Z30kn4i8wr8vLPRF71QnZjLk9iJM5ttuo+6ktuKRKXj/5oQdTM+rCUIrGiS6u+6UpuK1Jgk4pqvboQpYlgzWPLvthjqMpNCAFNKoZrg5GGXCgWXahe8P7DlswrBnFeg5p5sZSnyYsuLHv9aJXMK3K56OXThJnlNqNpyT/09putK4rE4YNnnx3UYmeNpmtxpebZ/y4ckU0Ij6fwpni2RC5gJ9c9exuReUUez+FF9ZUcuYQtvvDoWy05Po7DNQ8mFbXyAiM3sc0D8CC50JPDJ3iNmi4xchtrH/ReM7JPjjbx/9Tq5HqJZsO5sudK5LEiuT5T8VAxu729XgthEtTWYZodkyqRcHF7o93ezNYi+EGumnLNtUcQKVQ5yei7owtFFYKF0w2aLaWKCtHqOyn66fAgjO9kXtEtH/dBoO4So99YoQuhin2aPYUahAqt5ugvi10IdF9ObnA1qVhO0D/yLzQIUztJM4kV6hAn8/+/MrEOccKfFMm9pGI5T/97m4QYsc2jNKuOno1BkHKT/pc6AHH2KJJrScV4jkYt1iFAcjtKs2xtNwwBwgM27uIaAJlXdMf+GxCmQ+Mcrvm0+fhXfwuOqTrTg3uQeUW3fNAgSiZPY0WLcCa+6f53QXNsZx+cCQ1pvMYhiHJEdumuzVTcJR2NGpxYnqUvH0YaLRVODElPEaJE7iiSS0nFt6Qn1wW3esELt48fWCEObpFVRnoGMq/okv2vIUyDdJUy3B/O18hLmi3wqjLSNYQwlxTJhscahDlK+vpJ8IgVyGsW5sElnSd9byHMjYuKZN1pTKdAqBCGfRWvdB9/W6uAQzlHBjYgjpyv6FZSsUlGzkdgU3jHO93H3/KbIdh1IUdGdvCNnK84fY8gzjEytKLClu458irb+an6HBlalnlFd7yKQZyq2XcCFdap6ynyrqNZ2DHfJEPsAsS5r0iWnVIhzoU8GeupsCrUyZNIqbm+yfnAwwkSiL3VbNTHIhnraxBn32dFcmWmYmSBjDHLT1mZcyQIO3xiNXswo6Fq/McqCHfL1U5hjZEY/a7l+jhMJtYhkHpakdyZqXiAkYmzqrULzZEIqUKvUj+EH15YespXY7VWZ46RANGKxfrok4lSCCI9UySLztyAUEMScg+pJsixxtvtAxr+cpYMVfGXTHm1nXJen72IkPtHvgahrsjJDVZ9iECoWJ/IcR+iOn67y/q94si+wR0ytD0y8Te9ESWHzodgpl4iM1mItU/OV3RtpmJmkUywYQSGkufJkaMPd+c5XkKfxSjtYO8cIyfacRjrNsjMqoqf5HxFS2YzqfhTvERmNpJmJ075Nc6vxzHeCTK0grHCB5zVSKnusNmKZlX8IvOKU3btNYRLbjAycT4JXd0ScWPtahy6Foj4whzawWGDEa9cGfrKUTKRq+Bfcr7iFD3eB/G0KiMT/Th0FA/zz8td3QpDX6RtUrUwcKhVSBGnaBY6IlXT+ljqYgJuX1MkjqSiKAcXyUTpgk59pLgPYrRCMBTuk6EFGFJrHd7aZdUIxlHPMjKWX9EwCSGZV3R3+7M2TJGxXBpjpBlxWdvYgplkkwy1VdMrVPuMeLAexog9JGNs6QAm5KkicSQVBTpoNnydDUL4XytPPBqr8zAXi5Khc2GYOtRaYsSBrYRG2/OTZKyxq+F/Mq84VTcPYXLSZj9LJy/gX8uMOMz1YrAiniJDzaS1lVZ8C9+GKv4R2s2b/HV6YUzOa0Wy4DImKbQ8R4YavQsqEJ4P4bvdFNkXHcRgzXzC5EoWLxTSqXwTnSS+qx+obdXKg3NkKNGJYZLCZxTJ/e3P4RdRs+XKc40ULc3z3j/WVmOwaouRoVTc+naSPtm3qQJIvkiQOfawDn1yvqKp2UwqjpM5z8jcWkvDcorsYhsxWFckY4kMLNN2m2TbRgjzBbJgrhKBHplXNDPDScWxKotkwTH79w9W2IIdFTLGurAhuZIguzqWVjfkVmKYvEeKxDVTUbzQTpQmoGl3LUeaTByELfO2lyQyRuaWapiGI7IJMfcS09E9yUiw6I4Km1pkogKbinMkWiOL6YicUqSZ2f6sDqIk1NIWbKuSiTTsCn9h706fGikCKIDPez05JsbJkIVsCASSrIQkQIVLtoRwBgRFibq6arm1XuWxq5Za/v9V3tQuV0/3TNIT7d9nvvAhkJl+/d5FwFjNVTAq7zmWzLcYmWKT8fH2Xajbp8Q61LWrjE930YWE7VccoftpjE7m64AxOVqBjvOhXEtK9QTjIZpFjNBjx5J4BSN1fMg4eKfQ06PEAbSUFxiHzhlGyrW3CmW+xGhl4vhj2yhD0w4llqEnvRTH73WMkOwe9N3GIal4C7flMRrRT0PXE0r09H8vnxHNFDBqXznWne7nMHK7DUbhD6BvmxJ70HZcZRRCIZho+xVH5W0Xo5fbpL6FMiI4pEQf+grPBLWJRRhw7zvHussnMCG/SV0zdURRpcR2tKMeQU3iIYyw/YqypKIROZ9aRC+NKDIlShxF3jfXcwEVNq84Ko9hxj51iDMXkdS7lKgimkqDOoI81Ng96JH4zoUZK9OUi7/8puJRYiGLaPLb1PAMhtyz1SZJSCpek12gskYNUZ34lFgtIKJ8X1DZJEz5ybESkFS8Zo+qFlYQWXuaElNFRJVZprIHUGT7Fe8wlklFhVitbEJaX01QIjhGZJkNqipDle1XHIE30zDlJNDvf9b3gDJ+G9G5Zz6VNAsw5fF9x7rNOzBn1qMCr4g4tCgjaohDjypm8jAm/dyxJJ2KZtQaVLBZHs0XOzGP6FIbHSq4yECZPSochR9gUrFEBd4gi8jOKLWOyIpqF9VPs9Bh+xWH7v17MMndVAzxVhDVwQheuLoDjyrEA2ix/YpD9zGMOhNU02ghonNKnSGayo5PNaUcTMraahNJp6IhRY+qgl4dkexQ6hRRuDolJ+cw6lXHSlRS8W/uGjUclRHFGqU2EEFhOaA6UYMOm1ccsl8fwRT9FRDv6zT0zVFqD/pOmtRylIIO2684XN9lYE6uQU3bRehyZyjVh67sZEBNpzAoZ48Kb/YZDDqlttI6NKWPKLUGTbk+tXl5mJO1U2w3ewvmrHQYwU4OWgoNSs240OHOdxnBkgtlNq94k/9EUhHuDCOp1qAj51FqMw0N6Y1pRuHXoM7mFYfqjTSMmWVE/oELdfmAUo0C1LUPGVHDhTGvOVayjgmzVUa2WYGyok8pL6fR1RAwshbMedOxEnVMuMgYBA9dKNoVw7gdXpljDLo5aLFTbFeNbafipdQW4yB26lBTo5xfhJoHW4zFAdTZvOLw3K/DlK8Zk9VZjftSsY6wobDDmPg5qLF5xZuMd6fiX3JTjIs4LSgPsMU6wlY+5HVjVo0F3PvGsZLzCLLPGB0eI7z1mPsT0meC8ekcw5R3HCsxScW6xzh1Bi7CmmQIEwgr3+QdxinVa/OK1z1CeMn9B6J2o/uAITxEOJmHAeM1vQJDfnCsK35xYUbeY9y6Ycegz2PscEs/EYzbEgxJOVbE6bUkpBRvJc4zCKMXX7K23OU//hNPIT861ss+ghmFKQ5DdTe2OsflUNVwHodhA4rsFNuwfA4zFilXElTmT2Yg1WcIPUgdb1Jd1U9wybvNK17xZgpGZI4o1Sk+9KluJqc2wKZ/pVBrZbGZ20vwzanHHzrWi16HGROCUqea3/C3WpA4imOJINcXVLeURX6LUo0cjEjbKTYD6896VVilFIDjLaoTstKTKkOYwZ3mS9RwkQLQEpRahxnfO1YCkoptEWasT3/GsFqWD7BFGmErnAutZSz8Kd2k1CHU2D3ooXi/DiP2KLXt4i+FOWqYPsjiVjWfErKNqXJVUF3QcvGXeUEZMQs1Nq84DE9hRHFKoYiz0KcG0cxLut31J3TSkx1q8GZVaod2YETGVpskYHptkVL9LC4tC2porEc6SKeYwM3ya4Iauie4NBtQxq9AiZ1iuzT2ScVsiTL+8Ys/vzhNDWIpj5u4VTLCe96JKcrIl7GWEvum91PHuvThI5gwK1TfsbYC6liYxw3mBUMJcrgu1Quo46iCF1UEZRpZqLH9irF7noUJF5Txy3jZ/BR1dDYKuCp1xJB2XFxVW6CWtZR6ffZvMCFnS95NHxPWG5R55uKK3S61bK7gig3BkMQAL3P3PWpZTuGKcocyPZjgPnUss9Nr61r3wVcOqcUbZPCiRcHQgpcvYe3OUYvYcHHNM8psFWHCZ45loFNRae9gDjcoblKLWGvjUr0nqMDv5fCv4sYqtXiTuMGJSGhFlj0qvHQ/AwOKnuYYWe6ZoJapXtvFn+qDEhWV9ttZAO7JwSr1BBO6EwxrMOGRYxntVBxQppnCjdLL1NRpXuwfnM91BdUFCzP9mWqHmhoPtPOaU3mosP2KfxvzQhN3Tv+yq7sRcMyU2riFPJElJqHGTrH9YdyTiiseJUp53GpScKxsFqPkCeayCM0+hPxj3DsVB9Huuq5vcYxs53G7yhYlghUY8O2vjvWnpy4MWKNEp4271LocF2IpG7FcZQADUrZf8W/fw4D8VNRpp/YCx4PYS+FOtYASfRjgfuxYxqbXJkTkt//5TY4D/yCLu7lNSnQLMOALxzLWqbhHia0cZAprTL5g4EaP/YsJhGfzivF67mL03GocF4UK/cS/zPIeQK7iU2IZimy/4nh3Kh4LSswjjPOEf0JWTxDGE0osFGDAz45l6JjwjBJTBYThLk4zwUq7CKVFCdFGaDavGK8fYMBabBnvQYeJ1SwinPq0PFWgwE6xOWPeqZiTJf7EPMIqTzGh5lIIq5/IF72PbL+ioaTirIhxnby8ykTaScV4N2YhjdHL2H5Fx/kEBhzEWnaTLzF5xL6L8IqB/PKxGrsHPc5JxTlKTEBF/ohJI1oxZ5vPoMZOscXjw3sYPVf6CFKEkvQTJkswCTVniVyb+tz533sKA6RlN00oSp8zSbwaFJ1QogQDXNuv+D0MaA2hLO0gQUeGpV2ocru823QdBti84gcw4IJ3EzWoayXmE1IqDqMkbAIGfOL8z73/GAY0ZQGNOjTMJ+TIcDsFDROJjGO96/zPPc9g9Ord4dR4zHpMgLUCdFT8JHab/M7evXYnTsRhAOf5TwIJjdwKCKXcl0Jpq6VgUXqDFmy12uqqu8e1uqv1tupRj9//hcf1eN3dMEkmzJTk9wHavmAaMvPM878X9H7FFUhQKJK9W7izJv9AhF3BneiA7LViWDzj3Uiw3YcEHZqjBpesMsnFxgZc2lbyYnrQ84rfQoI+2StacKteIplS13DtWslLU+9EAu2tKCSokL28Bte0p4ykMZtwb0Zz3EKCeCTQHkKGMtk7hgfRMcny+hE8iKWUHMYW7GqTryGB1vW35OaWkRT5I3gyInsjOBDmFe/u6LUpI3vr8OaAZNid+fxqtg8nwryiAG/dgwRpslfMwBu9Qotn1vyel1LUIcGjSIDJ6VQ8J3v7UXiUbNHCncCrwvwnqwSrP0eC63vIcEX2BoKKf/ntZp83TpAT+SS8sub9xj3I8F4kuO5Dhh7Zu4RnsTzZ4DthOGHkwCU80xtCH1Jhv6J3jyHD6QIKPC7Jgb6GF4hWiB+rLiDDeQVe4VGhEN9okEDLk70mFvsdq6J7v8jbXVvAqq5Ahnhwq03egAzJHNnbFFObwmtSx0tMTeLV0BfQpjeBFD9FguoDyGAVyRaz4F2BEaeczXrcM4lTPgrvqmSvZcCRMK/o0SPIsMPIVtdY5BOk24GNW+JkWvBuxlnHyi8cxXbnOhXn/5/chQBt4tQXM2ChuA7vMoxsJSzI8CCozQ0PIcU12StBgDPicxaDrWR5YeeEgJGaGzGQIRbUl5AnkOKCI8vrlZ4jLqcW5tjk/EmNGLzbJ1usACfCvOJdHL0GjP0/ckOfuDQ2MVc6QVzG8G6g5FE6Po0E0of3IMWh/5+0mUk8ik1w4DxRz+3Asy0VZyAEdhTbu3DjLnwK4hPO++MaOOg94tKw4NWhiv28QCyYb+nfQ46e398jpmXiUomCS71FXPIFeLQt+uEa9it68Ank6PnbIJjsdInLqQ5ORyZxYVtTTfnXs7BfUenRawAqfi6QeH+XOBXALUucWKkQg3tZ0Rt8YV7Rve9WIUfJr6xidNY+ZcQtDW5j4mf2hhkN7nRUHIEA4EEQ+xVXIMmI7FXhRnK41WB+XQGskCNscrkZgwtDsncDObQg9it+AElGwi+WRqfXgyI5VdKcdwnzM3t7lgaH0irW8wY1r/g5JNkQu0Bi1a0WIxfMuKtoML/E5GRTW44FEsB50A46FdVdIMZOp5Qgt2rglCXXcltNawkWSABHsT2EEyq+g0Rrx60EeXDBf7TpRXdwPtXu+ALRgtev+AS8VFwgsUy71yWPbsDHMMkj1ni6V9fu8ALBK5GgeQdOKLXNq21elovknWmAyxEjAbobt0ca7KUV3cUKYF7x1cdwQpmDQi2TraRIkBlv46EgbPfpMOllm/cMjoWj2Nz5IgZuyiwQo3p42iVxrnkjhAKZG+dTvMyeogeFwOqvkWD5DNL0yF4HL6LFO09zJNYheBgjEovlD5pJvEhWyWKsQPYr3oc0W843l7T1/qBLwp1GwcEySThmls538JxzFQfdBjOv+BjSHDqLgGj14dY++SKxBg5V8gebXFWj+I++onF3AK9FAuUHDdKMHXzx0TbHI5N80+T7e33DcpX2mvoXpv6w+mEkSFYgzwXvpLFM53iXkZ/64FAhXxXLV2kLfzpQ88rtM8HKK34AebJc0w+Ozkv7jHxWwnzJPPmN7fayFs8ZahryfB0JktcgT5Xs5RAfHuYZLUCjzplU9B8bXFbr82p/ZnAozCu6881HkGc6rz+wlGO0GGyd/4HnP9YoKlkc96dHQWpueKhBHitByqhswp5WG5AyEnHIo/8SCY4nkChpkjrMrYKGl9KrvRSpY1+HRL9FguMdSBTLk0q6ZzUNL2Q0S4xU0tLgXJhXdO7jbyHThNSSqlQNPCeaHqm1PFxNNw3zim78EoVfFDhYcKFYacbwH8beQLXlQXQGme4Fp9rke0h1RQoqD6P4W/26RQo6hExGcPKK9yHVmFTEBkMdz+hZJZcH0S1cCPOKjn38I6RKk6Je30sCmezrpKg0XAn7FR36YRUSGYVjUtb+9XaOlHXanmmQ58HbkWBYgTTJ9KGy/5/vArbbz8CxsF/RmU8hi1aikEc9DY6F/Yp3JKnYptB8yl4KCUhe8dWPIMlQvaOFOyhRhSSPIoHw0IAcVZVyTXdYagg5Vn+OBMETSKFdh+tDEHaSgRNhv6LqSUUtvr69SyFhWHm7FtfAK8wrKlxoEtvpHJ+a4duHcKnWVrvAN8wqzCs68JaBhYjWM7X0Sa+h0PWoJcS6pzf9vfUdS9dgI6w24fcmfGTo8Z1ZYdg/Lk3y3SIjWRLlUe+sN2HkPza6SKc7FwcbXUbSsESuNdg67N/uNWubR89/+QqrTSQnFZPT4XalZaYSRZKLma3KdnNHwzPxdoP8ldtO/tOrXRtvTXIKfJlkqVYvO9PxtzCvKHX683Q82lfgY1Hcr5w3d+IG/i16wshHowz+R89U2zdlBTbsmFnKJvGXsF+R18+rEErfmzCSi6XypfP0NIoXaqbINyP9pbPh1tsHE+lbE90DC0I9WP6XkBUNIk03GEnEzNHlcBaPwUaWkU8GFuxo9Z3mWPIuxf4QIulfRJbdpxCpkyBJEruDfmczjvmMK/IHq4GHflS9OGulGEnBLjU8E/Yr8nkfArUZLR4zK9udmhWVXsR1pjk5Kj1Knx9IeZr0AYR5RW73IE6a0UKx3Olxe9352dgx+WIdjtU3h+elxmL3v9keEOYVef2kQRgrTwuTGhy2q2tJTaE7vt043IlZheHJzeI2/sw1CGMsewHpE4hzSAvAzPLZbXPHgAdrRfJBGd5YhU5/43VG/ruCOCuR5fYVhFlLkL8S+ePb9DRuwKt4inywAQF0q9bZHvm8H5yoQ5gvI0vtw8fgJL323KzqEKTepT+ouED+FNsgX3UgzOeRpfauDmHOyF9DQOk++bIGUWYp8tUlEPYrLnr6c2xA/rqBKAXyg2kBd6RKrwJhYsvdr/gJhEk2XGROnRyX5TIQ5JZ80YQg+oR45cqDsvM8ZEmDMB9Eltnv7N37UxtVFAfwfM/d3TwmJiQlkbwISUugeZgHCEp4NCmUaCtoUeuD0Spqxepox/9/xqmdtpRH9uzu3fawyefnTn+AXG7OPed+79N3tkBUtXGS2tsqrpSI6w40KdA5wqJy2f2k6igPGOm5pUZJOd1BpvOKDO/fgDaRGnGpbONwL4kXksuLRKq+aD/Ela1Ai3iGfJExoYVxTDZUv7+6lqvfT+Mlc2+2y++kNKDPUSjAHkGjbe7qaJ47j4otjcr5iDl8W2X6Mp0l73Boa4ZsZE0YlbkFvCmeanQUccxCHyPI0SafQ6Me2VODnQXTdWU6Dx2sDfLJhgUdVtx3+iqpflWRHbULANN8xbecqZjskI32ZtHAlW7XyUZ0DhosKPKJWoAGsQ7ZUGVcLd47jtJ4XUznFVm+PIJOh+Njlhs3MZZRIzvb0KBBvmlAg5EiGyUTY5mHhXFrpL0FYDqvyPCrBZ2ShTFJBocxDaev9bTULuELiTg8M0pkpwk7xl5zka6gZgFg2ipkeAS9Klm6jFo72AVDK/c2WsD7dBk5QdI9spObA4PVq6nLYxihV/hJKKgeQ7P8kC7KjmJgCXfJTjsNj6wB+WiQfAsDCathsFjFRpTOy+1Dt+D20h9Ct/BK/dyZbr9o6Dx/bcKjm4ouEtRNX1c6D2nN2UKGzlCFLbwyvXb7LlJ5W9ud15eamgsmHDCjZKcehzfHdAk5A2PGkOyoNJxI3twsvBifV+3t2xG8Nk3ofTcv5xjF/YN+f3NUDMOppu9byFaU2NTi9mh9/c7dNvFFW75vIF04Zuymer2beQO+eBgKqs8gzFyO7GRa8GKH2AblCP5nLVffViSCydhAyhAmuI0QcQskfOxzryFWJab6Pl5LHhBXO+7zm3TDMIT5ORRU4hYI1smW2oN7PUU8ahlnGU1FTD24F86SrRNIE9wd5ANIY7XJ1rwBtyIF4lH7eFPklJgKvk5h0Uwc0gS3BvkZ4uyTn1/CFxLEM4zgnEqHeBK34VZ8jZNIIk5wr0x9C3HSUbJVNX2eyKfEHC7YnSGeTT+nxNRtiPN7KKh+hzwrZG8H7qTXiKePS/SJwcvAWDHH+n4pTnBf0flU4E87r8hWZheujDzdfs/P+DuQFR7SNTzjBcxfQ0F17wbkafh2pzoyJJ773nooqxG4sc/7r8UJ8hshv0GePUX2lv0cw6rGcKnKIrHkUnAhXmeNeskT5NSGTyCPUWB9hn0cwzrx+hWtDxc2yN6iBXmCe4j1PDdOoD3lT7chPuM1ITGySiyJtE/1UQryGEF+ZOpjiX+RcOzPZ+WO91b4uiKWO760QChrQp4glyASh00A3FZkb60FZ25kiaUQwZUi88Tg4pNsbFzXDSTAgybPPYZEDWKoGY4HyTlyRQ2JKGrZjyHjgcT9PvxhKMj+uQWBWsqHwfJ5HcEkkT6xbMCR3QTZUxKPsPDdl6FA+woSbfPmQbR9Bvk9yFaGGBxGsyUXiaEmbs79ucehYPtb4rbNnAnpxMF3oOm+047+V86MLjGoOQh0K+hvFIpshXBPnFYtcKU7xFFNw0a8TRydCthmFTGcCpwLCvJ99Jc+lThuArNDDKoJriViGel6C14taY5CTeQh0FFw57CEVyHMM6d/wbRKHKUYbIUHxDEEUzrLnA+TKOgVyHP3jiCQNU8cmTmwzCliUOv61q4qas2aryYh0NNnoQnwkcjTkV1FHJ00OE6Jo2CCwSoQx11wWH1iLl2BYo9Ck+CZwJu3AJrEslqBvUqU90dfZ9GQiYHhRBFHTWKFbgR5TPGsP3+EQLEssdyN6DoU60a0Png9gq6Kn2a2INAHwY11P+dRDAJxJwM3LdgwssQQ3QLTXpQYshHYKSa43RmBvv4jNDG+l7iDo68rzHCdOJq68xnXdeWgLkqc4o39FZoc7/8EgdJtYlEjQ8MYVj2uZzidH7Cwu0Ysqgh5jCA/TXjRF/Iy5AD0iEedYJxWnRiW4MAsMcy0tKx/2oQ8RvBb6G96IrFQN+aJJ9czvJ6HtZNwoFL1/KUtnyWejsQWyGeBn8E67weJIyfsrGk18jq2su7DCULGwJXiQ+LJSZxyP5qgAv2l9yT2C9nvQamr95AUMQzCcKZGDL3x+8e1nTG5EdysuDE+h0AHxKT2Ga9LawxkKyqyt2rgcukBMZUEnmBFPgpNJImFulkidqVuuR/D6hpwqkvun2rYahNTTmAW7wTMuF/uV4mFej5HXPcNtxfcE3twLJ1wfYF3LkNMahbyBDkp7hreDTlUxHVaYT0MetGmX8NiCRMXpTLENS8wavTon9DEek9gR924S2wbMVcdi2gcLsQzZG8f54VPFHFlBZ7w3ghyUNx1fDEEyUViG7TwJqPEynlz5YTsDS3A7WNulBB4Dd14LzTJnkm8op7vEFv7Jt5QVmSrY8IVK+N8TCR2TGxqBHl+Ck02kYX6siI2tWTgjALZm4VLKUW2jnFWfpH4+pDnk4DHYNl7IjEHqEl8qpvEK/Ec2RoYcMmqkS1VwStGaob4BgI7t0cTcwXkag8ErhCjQQ6U8o5uSi3AtaJyNJC1kiC+TAvimBNdoEvO603WyIGZE7xgdchWDR50HVQ46VVyILoAcQKew3utO+qtLDmgGiaeKzP+6RbY3D19W8b/Uh1yQmKBPqkd9PPuiXyZrU5OZMvMicKG70H0qwCQPFDkgNoR2JGa3A76eX8IHJBDKkpOqB2TEx2USMOTCmMLyQNzWXLkVGCB/uMEpChyPRD4+8GyIkeyxW33PUKdmaaN5LYiR2oCO+ixP0NTskff7yhyJJcjO+0YPEp2yE60RM7U4hAnMi3QxYe+Gzuk2yw8WybdFiXmVE9KSNy1LtStA9JrYMK7LOmVlbg+vpqIFF4n/pD4OFt4W5FGqgwNFhKkU2YP8vw2cRkN9h5JPMqqnJJH+hNvjQJp1BY4wTvhI+5X+UXgUTysBmmjtqDFbo7Guu4NdFiTkeIeiEJd5x5yDE0apMuayBDFaYF+uXtPIZClqw6ZaUGT9BrpEZX4/QqfhKYu90RioQ7zQJEOO9BmhbSoilwfT++Fpq7wQGKKAyI7irxbS0Ibs0MarEk8v8KtaQd9jG8gUeREkWf70OhQkWclif0P3Jh20MeS+TwblurkUTYMjcxhMPvnwDehqXHeF1moA8UZ8kT1oFWKPCoInE8E8DA0Nd7fIl+JBhaq5EW0aEGnfJs86cpcH99NO+i2Hoh8wBCIDcmT6P1yElqYcydDRV7kdiTeLwBuTTvoDI8ldtQBxLrkjao2ei14FFtvlhR5o5Zk/oitB6EphoeQyVhR5Flnc71lwRUrXV4Z5sizThkiRR6Hpji++AxC/cfevX8lEQVxAN+ZuyBwaAF1DTQtlIcghFhRSZCKdXocNbN39n5alqf//5fyVebeLbG9e2dpPn/BHj2r97szd2Ymih4Q0/ViOmZCNxLpwakhC72wQPPzFcDr/35I3FF9IhrUAVp59IhoTM2lSvEQ/JkZil9LvWmPW+gR0aEZzwGecQU94BX1beGOQO+ITGO+frWYSpeqA31wQCQ7fC2dKs515muWQA9ZFBeA7Fj7YLAjewtUmSsWqiCsZDlaq9WmpxvRZNISqMQoye6rbQMc0Ltyl+Z3lm2lPAYV0ergNg7o3TlJcdzinkRbYBDZZI9XYHIFvVtbD4CuSRuDh+7xCmCJp7h37RbFO+r74nUMmMwywfWD+2JfDda1S4R/oxBZqWGQDKXphjoYuGWw7q1SXGD4S/9IcJJIcpluOgcwnxrsWMhW1HdNNjAY8hRHl/xyd9Vgx/KV4gLDA7LngvBPJDpH+awKsMTvR28G9W2lBaSuTrX1ak/uk8GO7QThaLljEom7TfwnGPpisH/wCkgz55G4AtD20WD/4h7JcYs/pZE6QXK2D68h9MwnyhV1aCJ554Cws3wH/Z9t0bw+vaM/AC0n4wTXR+3L8RpCD1yg+4acRvoE3SIIV9B7eIHhjuwQkjcaBqLMSwbzBN3W9wqSRzeDcAXdK+8oLjDcMYPkkT1hnTWYV7aoHhNKSF4VaHrBLe4eukC052QRySPaacJrCI3/IaiX0EVySKCfRMCOWGGuoHtrlWZFvYguOqGJKRv9YrcnNtz3klDEFXSvvaNYUQ+dRzmrBACxmXoDlRPT6zMxExYtlBuleFfqJlfQPbdFcJjcaYFyTdg1PLluo0rlzmQcdtxGOTEB5DzgIYp7ejuoR8ZQLjoM+8z4TFtRHsnkmxf7I39texkDanLc4n5Q7y4wPCNQKlqE3yROXZ1NoreSs3OHdvIUx4X8aajtQo/wGsLf9eoCw0gdJcpTpyLgFJq4UogKj+ZeF26fDkue5/RGEiXqxK7cvjKYGu+eACWnBDrlr4Gr4YmrY9MC/4Wo1ecm4uDCPDWKThla/0KWDKbKJqWgHhpBp3wM/qL/YmUsXxbYLRHNd86l4vBn2Xl0GqF07fYFD1E8pFeD+ow49v29SGJxpbJeiFp4FFa00Lk6Wc2acAQt2VNdBDKyWwb7XY8G9fACOt2GriTSqWJlef386NB0NJnJiH0ZK2mP50cLneVzg6lSCLpxG52GyPSyhbjFXa1vZIL6G3RqZOF4zHAiFo/3D1dbrcXqcDwejyXCJhzLsE25nH7HYGpdJtL6Xm2gE4n9Am10ahBpWbzJawiV+5ADCqbQqUYiIcUsdJoCCt5zQHfXWwsMpZ94bwAJFXQSKdAvx3fQffFI/1fLxDw6JWNAQiuJTuf19yz28RpCdz1WUa+gxDrQYM6iRAV0e2Qwf5xcAr1aUZQgs+IshRJC9+O95hZ332zmQCdzBCXG9Z/89kRslChEQKcnHND/oneC+qBAiWUgo4IyRdAoxxV0X70EfWI2SogSkLGYQYloP2gTOmEwX90FbWZRZpTMCeuHAsoUwtANDuhBpi+ovwnAcIRBlBHanvE+D1H03fMcaDFso4wg0syxK5RBGbEIWjzjKe4afAmDBqEFlFoAUsZQKp8FDXIfDKbBWxP810a5q0DKDP5ApCdr4KHBdLj3CnzmPqfBInXCAsjaiEijJ8t8aTA9Vn0P6gN5lBsBYtZRbjwGPrvPFXRtPqyBv9rogtCl1l0T6KID/nrC70dXAh3UryVRztbfK3uIWUZEAgXN3KbBNPrYBz6apfJn+Qg6iKi/XNjHQxSPI6AV9ZJAFytAzgqJrZ5vDabXybPgmxF0kcwCOfEoupgF39w3mG6bD8AnLQtdnAeCzqObEvhkiae4E3ArBP5o4jaat/VcB2TpvPqY+2QwAj5GwA8JG10IWsNv95xCN/YA/BFX0HvL6mPwwxl0YxMbn76rr6E3ppu8hpAMX4L6GwzQR95tTdT60e0uD4kj46sfQX0D3VCYOdXNgjhsgnqf+f0gZDMMytXRxTiJgYpO4SGNKX3tq8EIuRQG1cbQxRUgqqLvBQlzBZ2YO6DaBsqVq0BUfwbllkGxvqcGI0Z5UC8SuoN0RE1dvcePDUbN9TVwpfKuVPIMkNWKooyoglpL3OJOkOoFhokaymxQGvdzWFPLhKIcz2gg6VIfKNVGCZtsAnHvWFwBpQY4oBP1GJSKlamPw3KatNBhKAQqmTxEkayboIx8r61oUj5gbZvDw6w0KPXKYFRdfgEqmRuOggKZ9bFuzGWBvxGDoNQzHqJI2HPFp4e2wAPK5/qAvpUyHhAdBKXWeMsBaRdCoNRkA3+aJ/yB96B4M4P7RqqgVIjXEBL3CNRKDC4kBaKYHpuAwIjPFWqWZY82F0GtMLe4U7d6ExQzY60z6X5yc36+s3cvu2lDQRjHZyRugnblBetKXrNDghdAIgKJEMLFCEMQAdSGhPD+i0pVVVVpMDfb9Tnn/3sHS/48429OyJe/fMvpEQR0h7TWiv+kK8i+71m4o+6kOR0NRqhn9P8M2/kEdENMFOkrVQSGaCvOxIq7i6ozRcqWTAgNEvqKEwjoLusQ1FPlEdANs1Ckp9AQmGWwVKQl1xOYptlVpGRJSZyB3gjqKQlocTcSQT0dXigw0liRPI8JuqmqfUXixgJTMVFP3pKSOIMR1JO2ZsPEaAT1ZJUJ6IZbZfI8mi1yHYHZ3gnqycmtBKZjop6cNiVxFtg/KBIRsOJuhV3m+0HN5G0EVphmvWHaSAUCujWeFLEjoNvjnqAeu6XAHq8E9ZgFTNCtEppwqMAg/l5glQZPSIxKI4FlCOpM0BGFoB6bRyboFnoeKmIRvAss9MLqeyz8V4GVtqy+xyDPBN1arL7fLjcVWKumuFFfYC+C+q1mdDRY7Y6gfhOfX0AsV+HnkBsUmaBbr6e4VomAbr8BQZ2AjgitteIqPwQuePEUVxiy4u6IA0/IFTwCujMmCiboOK6tuNCTwB0E9UvVmBA6ZcddhIvMOUPomDpB/QI+Ad05Y+oWz1bcClxTJagT0BGhxQHDM9VYcXfShqB+ljUTdEfVKZM7Q2EncNRYcUqeCbq7mkvFCROBu6qBIlJ7IHBYyF2ESAEB3XEjWhwieAR0502pWzwqR4kiZMLOCR0NoJD0cmMBRKo8IZ8pLgT4pc9InStSiNAgqX/gkc/BPOSoWSjAX5qPfMz6o9Bnfo6PKpxG+C24E+AfzVVZoQ8HAT7V6jlf5eBPmwIc09zOHP6gVajx7QqnhOO5k3m9MJtSfoWzPNd7XT/vzGNS9IbtxYhXK1xisH8b1Q+Nk77G71CJX/2YzijctO4FAAD8ZA8OBAAAAACA/F8bQVVVVVVVVVVVVVVVVVVVVVVVVVVVVVVVVVVVVVVVVVVVVVVVVVVVVVVVVVVVVVVVVVVVVVVVVVVVVVVV2oNDAgAAAABB/1/7wQwAAAAAAAAAAAAAAAAAAAAAAAAAAAAAAAAAAAAAAPAF5XhOAtqEeI0AAAAASUVORK5CYII=;" vertex="1" parent="1">
          <mxGeometry x="1760" y="1469" width="329" height="329" as="geometry" />
        </mxCell>
        <mxCell id="ReHwsoFXrBNR-BmlqAqF-39" value="" style="endArrow=classic;html=1;rounded=0;fontSize=12;startSize=8;endSize=8;curved=1;strokeWidth=18;" edge="1" parent="1">
          <mxGeometry width="50" height="50" relative="1" as="geometry">
            <mxPoint x="-18" y="2092" as="sourcePoint" />
            <mxPoint x="-18" y="1750" as="targetPoint" />
          </mxGeometry>
        </mxCell>
        <mxCell id="ReHwsoFXrBNR-BmlqAqF-40" value="" style="endArrow=classic;html=1;rounded=0;fontSize=12;startSize=8;endSize=8;curved=1;strokeWidth=18;" edge="1" parent="1">
          <mxGeometry width="50" height="50" relative="1" as="geometry">
            <mxPoint x="1155" y="1330" as="sourcePoint" />
            <mxPoint x="1749" y="1186" as="targetPoint" />
          </mxGeometry>
        </mxCell>
        <mxCell id="ReHwsoFXrBNR-BmlqAqF-41" value="" style="endArrow=classic;html=1;rounded=0;fontSize=12;startSize=8;endSize=8;curved=1;strokeWidth=18;" edge="1" parent="1">
          <mxGeometry width="50" height="50" relative="1" as="geometry">
            <mxPoint x="1215" y="1777" as="sourcePoint" />
            <mxPoint x="1500" y="2089" as="targetPoint" />
          </mxGeometry>
        </mxCell>
        <mxCell id="ReHwsoFXrBNR-BmlqAqF-42" value="" style="endArrow=classic;html=1;rounded=0;fontSize=12;startSize=8;endSize=8;curved=1;strokeWidth=18;" edge="1" parent="1">
          <mxGeometry width="50" height="50" relative="1" as="geometry">
            <mxPoint x="1297" y="1620" as="sourcePoint" />
            <mxPoint x="1737" y="1620" as="targetPoint" />
          </mxGeometry>
        </mxCell>
        <mxCell id="ReHwsoFXrBNR-BmlqAqF-43" value="" style="endArrow=classic;html=1;rounded=0;fontSize=12;startSize=8;endSize=8;curved=1;strokeWidth=18;" edge="1" parent="1">
          <mxGeometry width="50" height="50" relative="1" as="geometry">
            <mxPoint x="752" y="1583" as="sourcePoint" />
            <mxPoint x="323" y="1574" as="targetPoint" />
          </mxGeometry>
        </mxCell>
        <mxCell id="ReHwsoFXrBNR-BmlqAqF-44" value="&lt;h1&gt;&lt;font face=&quot;Courier New&quot;&gt;&lt;span style=&quot;font-size: 79px;&quot;&gt;&lt;i&gt;Commit&lt;/i&gt;&lt;/span&gt;&lt;/font&gt;&lt;/h1&gt;" style="text;html=1;align=center;verticalAlign=middle;whiteSpace=wrap;rounded=0;fontSize=16;rotation=-90;" vertex="1" parent="1">
          <mxGeometry x="-283" y="1706" width="685" height="439" as="geometry" />
        </mxCell>
        <mxCell id="ReHwsoFXrBNR-BmlqAqF-45" value="&lt;font size=&quot;1&quot; face=&quot;Courier New&quot;&gt;&lt;b&gt;&lt;i style=&quot;font-size: 62px;&quot;&gt;Pull Changes&lt;/i&gt;&lt;/b&gt;&lt;/font&gt;" style="text;html=1;align=center;verticalAlign=middle;whiteSpace=wrap;rounded=0;fontSize=16;rotation=0;" vertex="1" parent="1">
          <mxGeometry x="211" y="1267" width="685" height="439" as="geometry" />
        </mxCell>
        <mxCell id="ReHwsoFXrBNR-BmlqAqF-46" value="&lt;font size=&quot;1&quot; face=&quot;Courier New&quot;&gt;&lt;b&gt;&lt;i style=&quot;font-size: 70px;&quot;&gt;Sync Clusters&lt;/i&gt;&lt;/b&gt;&lt;/font&gt;" style="text;html=1;align=center;verticalAlign=middle;whiteSpace=wrap;rounded=0;fontSize=16;rotation=0;" vertex="1" parent="1">
          <mxGeometry x="652" y="1690" width="685" height="439" as="geometry" />
        </mxCell>
      </root>
    </mxGraphModel>
  </diagram>
</mxfile>
